<?xml version="1.0" encoding="UTF-8"?>
<svg width="88px" height="27px" viewBox="0 0 88 27" version="1.1" xmlns="http://www.w3.org/2000/svg" xmlns:xlink="http://www.w3.org/1999/xlink">
    <!-- Generator: Sketch 64 (93537) - https://sketch.com -->
    <title>google-play-badge</title>
    <desc>Created with Sketch.</desc>
    <defs>
        <linearGradient x1="61.2949728%" y1="4.43013964%" x2="25.9613385%" y2="-63.3013157%" id="linearGradient-1">
            <stop stop-color="#00A0FF" offset="0%"></stop>
            <stop stop-color="#00E2FF" offset="100%"></stop>
        </linearGradient>
        <linearGradient x1="107.59937%" y1="49.1246432%" x2="-130.466352%" y2="49.1246432%" id="linearGradient-2">
            <stop stop-color="#FFDF00" offset="0%"></stop>
            <stop stop-color="#FF9C00" offset="100%"></stop>
        </linearGradient>
        <linearGradient x1="86.7305721%" y1="30.5094203%" x2="-50.4750708%" y2="-76.752866%" id="linearGradient-3">
            <stop stop-color="#FF3A44" offset="0%"></stop>
            <stop stop-color="#C31162" offset="100%"></stop>
        </linearGradient>
        <linearGradient x1="-19.3264311%" y1="-12.4138642%" x2="41.8455426%" y2="-59.7666351%" id="linearGradient-4">
            <stop stop-color="#31A070" offset="0%"></stop>
            <stop stop-color="#00EF75" offset="100%"></stop>
        </linearGradient>
        <linearGradient x1="726.04%" y1="-375.06%" x2="-1693.66%" y2="-375.06%" id="linearGradient-5">
            <stop stop-color="#CCB300" offset="0%"></stop>
            <stop stop-color="#CC7C00" offset="100%"></stop>
        </linearGradient>
        <linearGradient x1="86.2519477%" y1="30.5569455%" x2="-50.139638%" y2="-40.8021905%" id="linearGradient-6">
            <stop stop-color="#CC2D36" offset="0%"></stop>
            <stop stop-color="#9C0E4D" offset="100%"></stop>
        </linearGradient>
        <linearGradient x1="531.136316%" y1="-1432.53548%" x2="-167.406868%" y2="-2515.27742%" id="linearGradient-7">
            <stop stop-color="#008CDF" offset="0%"></stop>
            <stop stop-color="#00C6DF" offset="100%"></stop>
        </linearGradient>
        <linearGradient x1="1485.5%" y1="-963.14%" x2="-790.33%" y2="-3238.97%" id="linearGradient-8">
            <stop stop-color="#DF333B" offset="0%"></stop>
            <stop stop-color="#AA0E56" offset="100%"></stop>
        </linearGradient>
        <linearGradient x1="112.800795%" y1="-0.0378967314%" x2="-288.210143%" y2="-0.0378966799%" id="linearGradient-9">
            <stop stop-color="#DFC400" offset="0%"></stop>
            <stop stop-color="#DF8900" offset="100%"></stop>
        </linearGradient>
        <linearGradient x1="112.800795%" y1="100.009472%" x2="-288.210143%" y2="100.009472%" id="linearGradient-10">
            <stop stop-color="#FFE83F" offset="0%"></stop>
            <stop stop-color="#FFB53F" offset="100%"></stop>
        </linearGradient>
        <linearGradient x1="1179.86235%" y1="76.5825123%" x2="-494.065055%" y2="-956.82266%" id="linearGradient-11">
            <stop stop-color="#3FB8FF" offset="0%"></stop>
            <stop stop-color="#3FE9FF" offset="100%"></stop>
        </linearGradient>
        <linearGradient x1="-18.8043869%" y1="14.47517%" x2="42.099964%" y2="-17.389566%" id="linearGradient-12">
            <stop stop-color="#64B895" offset="0%"></stop>
            <stop stop-color="#3FF497" offset="100%"></stop>
        </linearGradient>
    </defs>
    <g id="Page-1" stroke="none" stroke-width="1" fill="none" fill-rule="evenodd">
        <g id="google-play-badge">
            <path d="M84.3225806,26.2580645 L3.67741935,26.2580645 C1.90322581,26.2580645 0.451612903,24.8064516 0.451612903,23.0322581 L0.451612903,3.67741935 C0.451612903,1.90322581 1.90322581,0.451612903 3.67741935,0.451612903 L84.3225806,0.451612903 C86.0967742,0.451612903 87.5483871,1.90322581 87.5483871,3.67741935 L87.5483871,23.0322581 C87.5483871,24.8064516 86.0967742,26.2580645 84.3225806,26.2580645 Z" id="Path" fill="#000000"></path>
            <path d="M84.3225806,0.452258065 L3.67741935,0.452258065 C1.90322581,0.452258065 0.451612903,1.90387097 0.451612903,3.67741935 L0.451612903,23.0329032 C0.451612903,24.8064516 1.90322581,26.2587097 3.67741935,26.2587097 L84.3225806,26.2587097 C86.0967742,26.2587097 87.5483871,24.8064516 87.5483871,23.0329032 L87.5483871,3.67741935 C87.5483871,1.90387097 86.0967742,0.452258065 84.3225806,0.452258065 Z M84.3225806,0.967741935 C85.8167742,0.967741935 87.0322581,2.18387097 87.0322581,3.67741935 L87.0322581,23.0329032 C87.0322581,24.5264516 85.8167742,25.7425806 84.3225806,25.7425806 L3.67741935,25.7425806 C2.18322581,25.7425806 0.967741935,24.5264516 0.967741935,23.0329032 L0.967741935,3.67741935 C0.967741935,2.18387097 2.18322581,0.967741935 3.67741935,0.967741935 L84.3225806,0.967741935 Z" id="Shape" fill="#A6A6A6" fill-rule="nonzero"></path>
            <path d="M31.043871,7.06064516 C31.043871,7.60129032 30.883871,8.0316129 30.5632258,8.35290323 C30.1987097,8.73419355 29.7245161,8.92516129 29.1412903,8.92516129 C28.5825806,8.92516129 28.1070968,8.7316129 27.7167742,8.34451613 C27.3251613,7.95677419 27.1303226,7.47677419 27.1303226,6.90322581 C27.1303226,6.33032258 27.3251613,5.85032258 27.7167742,5.46258065 C28.1070968,5.07483871 28.5825806,4.88129032 29.1412903,4.88129032 C29.4180645,4.88129032 29.683871,4.93548387 29.9354839,5.04387097 C30.1877419,5.15225806 30.3896774,5.29612903 30.5412903,5.47612903 L30.2006452,5.81677419 C29.9445161,5.51032258 29.5916129,5.35741935 29.1412903,5.35741935 C28.7335484,5.35741935 28.3812903,5.50064516 28.083871,5.78709677 C27.7864516,6.07354839 27.6380645,6.44580645 27.6380645,6.90322581 C27.6380645,7.36129032 27.7864516,7.73354839 28.083871,8.02 C28.3812903,8.30645161 28.7335484,8.44967742 29.1412903,8.44967742 C29.5735484,8.44967742 29.9335484,8.30580645 30.2225806,8.01741935 C30.4096774,7.82967742 30.5180645,7.5683871 30.5464516,7.23354839 L29.1412903,7.23354839 L29.1412903,6.7683871 L31.0167742,6.7683871 C31.0348387,6.86967742 31.043871,6.96645161 31.043871,7.06064516 Z" id="Path" fill="#FFFFFF" fill-rule="nonzero"></path>
            <path d="M31.043871,7.06064516 L30.9793548,7.06064516 C30.9787097,7.58903226 30.8245161,7.99870968 30.5174194,8.30709677 L30.5167742,8.30774194 L30.5167742,8.3083871 C30.163871,8.67677419 29.7109677,8.86 29.1412903,8.86064516 C28.5974194,8.86 28.1419355,8.67483871 27.7619355,8.29870968 C27.3825806,7.92193548 27.1954839,7.46193548 27.1948387,6.90322581 C27.1954839,6.34451613 27.3825806,5.88516129 27.7619355,5.5083871 C28.1419355,5.13225806 28.5974194,4.94645161 29.1412903,4.94580645 C29.4096774,4.94580645 29.6658065,4.99806452 29.9103226,5.10322581 C30.1548387,5.2083871 30.3477419,5.34645161 30.4916129,5.51741935 L30.5412903,5.47612903 L30.4954839,5.43032258 L30.1554839,5.77096774 L30.2006452,5.81677265 L30.2503226,5.77548387 C29.9819355,5.45354839 29.6058065,5.2916129 29.1412903,5.29290323 C28.7180645,5.29225806 28.3464516,5.44322581 28.0393548,5.74064516 C27.7283871,6.03935484 27.5729032,6.43225806 27.5735484,6.90322581 C27.5729032,7.37483871 27.7283871,7.76774194 28.0393548,8.06645161 C28.3464516,8.36387097 28.7180645,8.51483871 29.1412903,8.51419355 C29.5877419,8.51483871 29.9683871,8.36322581 30.2677419,8.06322581 C30.4677419,7.86258065 30.5812903,7.58451613 30.6109677,7.23870968 L30.6174194,7.16903226 L29.2058065,7.16903226 L29.2058065,6.83290323 L31.0167742,6.83290323 L31.0167742,6.7683871 L30.9535484,6.78 C30.9709677,6.87741935 30.9793548,6.97032258 30.9793548,7.06064516 L31.108389,7.06064516 C31.108389,6.96258065 31.0993548,6.86129032 31.08,6.75677419 L31.0709677,6.70387097 L29.0767742,6.70387097 L29.0767742,7.29806452 L30.5464516,7.29806452 L30.5464516,7.23354839 L30.4825806,7.22774194 C30.4541935,7.55225806 30.3509677,7.79677419 30.1767742,7.9716129 C29.8993548,8.24774194 29.5593548,8.38451613 29.1412903,8.38516129 C28.7483871,8.38451613 28.416129,8.24967742 28.1290323,7.97354839 C27.8445161,7.69870968 27.7032258,7.34774194 27.7025806,6.90322581 C27.7032258,6.45935484 27.8445161,6.1083871 28.1290323,5.83354839 C28.416129,5.55741935 28.7483871,5.42258065 29.1412903,5.42193548 C29.5774194,5.42258065 29.9064516,5.56709677 30.1516129,5.85806452 L30.1967742,5.91225806 L30.5864516,5.52193548 L30.6283871,5.48 L30.5903226,5.43483871 C30.4316129,5.24580645 30.2206452,5.09612903 29.9612903,4.98451613 C29.7012903,4.87290323 29.4264516,4.81677265 29.1412903,4.81677265 C28.5670968,4.81612903 28.0722581,5.01806452 27.6709677,5.41677419 C27.2683871,5.81483871 27.0651613,6.31548387 27.0658049,6.90322581 C27.0651613,7.49096774 27.2683871,7.9916129 27.6709677,8.39032258 C28.0722581,8.78903226 28.5677419,8.99032258 29.1412903,8.98967899 C29.7380645,8.99032258 30.2341935,8.79225806 30.6096774,8.39741935 L30.5632258,8.35290323 L30.6090323,8.39806452 C30.9432258,8.06451613 31.1090323,7.61290323 31.108389,7.06064516 L31.043871,7.06064516 Z" id="Path" fill="#FFFFFF" fill-rule="nonzero"></path>
            <polygon id="Path" fill="#FFFFFF" fill-rule="nonzero" points="34.0174194 5.44387097 32.2548387 5.44387097 32.2548387 6.67096774 33.8445161 6.67096774 33.8445161 7.13612903 32.2548387 7.13612903 32.2548387 8.36322581 34.0174194 8.36322581 34.0174194 8.83870968 31.7574194 8.83870968 31.7574194 4.96774194 34.0174194 4.96774194"></polygon>
            <polygon id="Path" fill="#FFFFFF" fill-rule="nonzero" points="34.0174194 5.44387097 34.0174194 5.37935484 32.1903226 5.37935484 32.1903226 6.73548387 33.78 6.73548387 33.78 7.0716129 32.1903226 7.0716129 32.1903226 8.42774194 33.9529032 8.42774194 33.9529032 8.77419355 31.8219355 8.77419355 31.8219355 5.03225806 33.9529032 5.03225806 33.9529032 5.44387097 34.0174194 5.44387097 34.0174194 5.37935484 34.0174194 5.44387097 34.0819355 5.44387097 34.0819355 4.96774194 34.0819355 4.90322581 31.6929032 4.90322581 31.6929032 8.90322581 34.0819355 8.90322581 34.0819355 8.36322581 34.0819355 8.29870968 32.3193548 8.29870968 32.3193548 7.20064516 33.9090323 7.20064516 33.9090323 6.67096774 33.9090323 6.60645161 32.3193548 6.60645161 32.3193548 5.5083871 34.0819355 5.5083871 34.0819355 5.44387097"></polygon>
            <polygon id="Path" fill="#FFFFFF" fill-rule="nonzero" points="36.1148387 8.83870968 35.6174194 8.83870968 35.6174194 5.44387097 34.536129 5.44387097 34.536129 4.96774194 37.196129 4.96774194 37.196129 5.44387097 36.1148387 5.44387097"></polygon>
            <polygon id="Path" fill="#FFFFFF" fill-rule="nonzero" points="36.1148387 8.83870968 36.1148387 8.77419355 35.6819355 8.77419355 35.6819355 5.37935484 34.6006452 5.37935484 34.6006452 5.03225806 37.1316129 5.03225806 37.1316129 5.37935484 36.0503226 5.37935484 36.0503226 8.83870968 36.1148387 8.83870968 36.1148387 8.77419355 36.1148387 8.83870968 36.1793548 8.83870968 36.1793548 5.5083871 37.2606452 5.5083871 37.2606452 4.96774194 37.2606452 4.90322581 34.4716129 4.90322581 34.4716129 5.5083871 35.5529032 5.5083871 35.5529032 8.90322581 36.1793548 8.90322581 36.1793548 8.83870968"></polygon>
            <rect id="Rectangle" fill="#FFFFFF" fill-rule="nonzero" x="39.1212903" y="4.96774194" width="1" height="3.87096774"></rect>
            <polygon id="Path" fill="#FFFFFF" fill-rule="nonzero" points="39.1212903 8.83870968 39.1858065 8.83870968 39.1858065 5.03225806 39.5535484 5.03225806 39.5535484 8.77419355 39.1212903 8.77419355 39.1212903 8.83870968 39.1858065 8.83870968 39.1212903 8.83870968 39.1212903 8.90322581 39.6825806 8.90322581 39.6825806 4.90322581 39.1212903 4.90322581 39.0567742 4.90322581 39.0567742 8.90322581 39.1212903 8.90322581"></polygon>
            <polygon id="Path" fill="#FFFFFF" fill-rule="nonzero" points="41.8245161 8.83870968 41.3264516 8.83870968 41.3264516 5.44387097 40.2458065 5.44387097 40.2458065 4.96774194 42.9058065 4.96774194 42.9058065 5.44387097 41.8245161 5.44387097"></polygon>
            <polygon id="Path" fill="#FFFFFF" fill-rule="nonzero" points="41.8245161 8.83870968 41.8245161 8.77419355 41.3909677 8.77419355 41.3909677 5.37935484 40.3103226 5.37935484 40.3103226 5.03225806 42.8412903 5.03225806 42.8412903 5.37935484 41.76 5.37935484 41.76 8.83870968 41.8245161 8.83870968 41.8245161 8.77419355 41.8245161 8.83870968 41.8890323 8.83870968 41.8890323 5.5083871 42.9703226 5.5083871 42.9703226 4.96774194 42.9703226 4.90322581 40.1812903 4.90322581 40.1812903 5.5083871 41.2619355 5.5083871 41.2619355 8.90322581 41.8890323 8.90322581 41.8890323 8.83870968"></polygon>
            <path d="M45.4703226,8.01483871 C45.7567742,8.30451613 46.1070968,8.44967742 46.5219355,8.44967742 C46.936129,8.44967742 47.2870968,8.30451613 47.5735484,8.01483871 C47.86,7.72451613 48.003871,7.35419355 48.003871,6.90322581 C48.003871,6.45290323 47.86,6.08258065 47.5735484,5.79225806 C47.2870968,5.50258065 46.936129,5.35741935 46.5219355,5.35741935 C46.1070968,5.35741935 45.7567742,5.50258065 45.4703226,5.79225806 C45.183871,6.08258065 45.0406452,6.45290323 45.0406452,6.90322581 C45.0406452,7.35419355 45.183871,7.72451613 45.4703226,8.01483871 Z M47.9412903,8.33870968 C47.5606452,8.73032258 47.0877419,8.92516129 46.5219355,8.92516129 C45.956129,8.92516129 45.4825806,8.73032258 45.1032258,8.33870968 C44.7225806,7.94774194 44.5329032,7.46903226 44.5329032,6.90322581 C44.5329032,6.33741935 44.7225806,5.85935484 45.1032258,5.4683871 C45.4825806,5.07677419 45.956129,4.88129032 46.5219355,4.88129032 C47.0845161,4.88129032 47.556129,5.07806452 47.9387097,5.47096774 C48.3206452,5.86387097 48.5116129,6.34129032 48.5116129,6.90322581 C48.5116129,7.46903226 48.3212903,7.94774194 47.9412903,8.33870968 Z" id="Shape" fill="#FFFFFF" fill-rule="nonzero"></path>
            <path d="M45.4703226,8.01483871 L45.4245161,8.06 C45.7212903,8.36193548 46.0922581,8.51483871 46.5219355,8.51419558 C46.9516129,8.51483871 47.3225806,8.36193548 47.6193548,8.06 C47.9180645,7.75806452 48.0690323,7.36774194 48.0683892,6.90322581 C48.0690323,6.43935484 47.9180645,6.04903226 47.6193548,5.74709677 C47.3225806,5.44516129 46.9516129,5.29225806 46.5219355,5.29290119 C46.0922581,5.29225806 45.7212903,5.44516129 45.4245161,5.74709677 C45.1258065,6.04903226 44.9754839,6.43935484 44.976127,6.90322581 C44.9754839,7.36774194 45.1258065,7.75806452 45.4245161,8.06 L45.4703226,8.01483871 L45.516129,7.96903226 C45.2425806,7.69096774 45.1058065,7.34064516 45.1051613,6.90322581 C45.1058065,6.46645161 45.2425806,6.11612903 45.516129,5.83741935 L45.516129,5.83806452 C45.7922581,5.55935484 46.1219355,5.42258065 46.5219355,5.42193548 C46.9212903,5.42258065 47.2516129,5.55935484 47.5270968,5.83741935 L47.5270968,5.83806452 C47.8019355,6.11612903 47.9387097,6.46645161 47.9393548,6.90322581 C47.9387097,7.34064516 47.8019355,7.69096774 47.5270968,7.96903226 C47.2516129,8.24774194 46.9212903,8.38451613 46.5219355,8.38516129 C46.1219355,8.38451613 45.7922581,8.24774194 45.516129,7.96903226 L45.4703226,8.01483871 Z M47.9412903,8.33870968 L47.8948387,8.29354839 C47.5251613,8.67290323 47.0729032,8.86 46.5219355,8.86064516 C45.9709677,8.86 45.5180645,8.67290323 45.1490323,8.29354839 L45.1470968,8.29225806 L45.1490323,8.29354839 C44.78,7.91354839 44.5980645,7.45483871 44.5974194,6.90322581 C44.5980645,6.35225806 44.78,5.89354839 45.1490323,5.51354839 C45.5180645,5.13419355 45.9709677,4.94645161 46.5219355,4.94580645 C47.0696774,4.94645161 47.5206452,5.13483871 47.8922581,5.51612903 C48.2632258,5.89806452 48.4464516,6.35548387 48.4470968,6.90322581 C48.4464516,7.45483871 48.2632258,7.91354839 47.8948387,8.29354839 L47.9877419,8.38387097 C48.3787097,7.98193548 48.5767742,7.48387097 48.5761306,6.90322581 C48.5767742,6.32645161 48.3780645,5.82967742 47.9851613,5.42580645 C47.5916129,5.02129032 47.0993548,4.81612903 46.5219355,4.81677267 C45.9412903,4.81612903 45.4470968,5.02 45.0567742,5.42322581 C44.6645161,5.82516129 44.4677419,6.32322581 44.4683855,6.90322581 C44.4677419,7.48387097 44.6645161,7.98193548 45.0567742,8.38387097 L45.0587097,8.38580645 L45.0567742,8.38387097 C45.4470968,8.78709677 45.9412903,8.99032258 46.5219355,8.98967895 C47.1025806,8.99032258 47.596129,8.78709677 47.9877419,8.38387097 L47.9412903,8.33870968 Z" id="Shape" fill="#FFFFFF" fill-rule="nonzero"></path>
            <polygon id="Path" fill="#FFFFFF" fill-rule="nonzero" points="49.2096774 8.83870968 49.2096774 4.96774194 49.8148387 4.96774194 51.696129 7.97935484 51.7174194 7.97935484 51.696129 7.23354839 51.696129 4.96774194 52.1941935 4.96774194 52.1941935 8.83870968 51.6748387 8.83870968 49.7064516 5.68193548 49.6851613 5.68193548 49.7064516 6.42774194 49.7064516 8.83870968"></polygon>
            <polygon id="Path" fill="#FFFFFF" fill-rule="nonzero" points="49.2096774 8.83870968 49.2741935 8.83870968 49.2741935 5.03225806 49.7793548 5.03225806 51.6606452 8.04387097 51.783871 8.04387097 51.7606452 7.23225806 51.7606452 5.03225806 52.1296774 5.03225806 52.1296774 8.77419355 51.7109677 8.77419355 49.7425806 5.61741935 49.6851613 5.61741935 49.6187097 5.61741935 49.6419355 6.42903226 49.6419355 8.77419355 49.2096774 8.77419355 49.2096774 8.83870968 49.2741935 8.83870968 49.2096774 8.83870968 49.2096774 8.90322581 49.7709677 8.90322581 49.7709677 6.42709677 49.7496774 5.68 49.6851613 5.68193548 49.6851613 5.74645161 49.7064516 5.74645161 49.7064516 5.68193548 49.6516129 5.71612903 51.6393548 8.90322581 52.2587097 8.90322581 52.2587097 4.90322581 51.696129 4.90322581 51.6316129 4.90322581 51.6316129 7.23419355 51.6529032 7.98129032 51.7174194 7.97935484 51.7174194 7.91483871 51.696129 7.91483871 51.696129 7.97935484 51.7509677 7.94516129 49.8509677 4.90322581 49.2096774 4.90322581 49.1451613 4.90322581 49.1451613 8.90322581 49.2096774 8.90322581"></polygon>
            <path d="M69.4425806,19.8070968 L70.6464516,19.8070968 L70.6464516,11.7412903 L69.4425806,11.7412903 L69.4425806,19.8070968 Z M80.2858065,14.6464516 L78.9058065,18.1432258 L78.8645161,18.1432258 L77.4322581,14.6464516 L76.1354839,14.6464516 L78.2832258,19.5341935 L77.0587097,22.2522581 L78.3148387,22.2522581 L81.6245161,14.6464516 L80.2858065,14.6464516 Z M73.4587097,18.8903226 C73.063871,18.8903226 72.5141935,18.6935484 72.5141935,18.2058065 C72.5141935,17.5832258 73.1993548,17.3445161 73.7903226,17.3445161 C74.32,17.3445161 74.5683871,17.4587097 74.8903226,17.6141935 C74.7967742,18.3612903 74.1535484,18.8903226 73.4587097,18.8903226 Z M73.603871,14.4703226 C72.7322581,14.4703226 71.8296774,14.8541935 71.456129,15.7051613 L72.5245161,16.1516129 C72.7529032,15.7051613 73.1780645,15.56 73.6245161,15.56 C74.2470968,15.56 74.88,15.9335484 74.8903226,16.5974194 L74.8903226,16.6806452 C74.6722581,16.556129 74.2058065,16.3690323 73.6348387,16.3690323 C72.4832258,16.3690323 71.3103226,17.0019355 71.3103226,18.1851613 C71.3103226,19.263871 72.2548387,19.9593548 73.3129032,19.9593548 C74.1225806,19.9593548 74.5683871,19.596129 74.8490323,19.1709677 L74.8903226,19.1709677 L74.8903226,19.7935484 L76.0522581,19.7935484 L76.0522581,16.7012903 C76.0522581,15.2690323 74.983871,14.4703226 73.603871,14.4703226 Z M66.163871,15.6283871 L64.4516129,15.6283871 L64.4516129,12.863871 L66.163871,12.863871 C67.063871,12.863871 67.5748387,13.6090323 67.5748387,14.2464516 C67.5748387,14.8716129 67.063871,15.6283871 66.163871,15.6283871 Z M66.1329032,11.7412903 L63.2483871,11.7412903 L63.2483871,19.8070968 L64.4516129,19.8070968 L64.4516129,16.7509677 L66.1329032,16.7509677 C67.4670968,16.7509677 68.7787097,15.7851613 68.7787097,14.2464516 C68.7787097,12.7070968 67.4670968,11.7412903 66.1329032,11.7412903 Z M50.4025806,18.8922581 C49.5716129,18.8922581 48.8748387,18.1954839 48.8748387,17.2393548 C48.8748387,16.2729032 49.5716129,15.5664516 50.4025806,15.5664516 C51.223871,15.5664516 51.8683871,16.2729032 51.8683871,17.2393548 C51.8683871,18.1954839 51.223871,18.8922581 50.4025806,18.8922581 Z M51.7851613,15.0987097 L51.743871,15.0987097 C51.4735484,14.776129 50.9535484,14.4851613 50.2987097,14.4851613 C48.9270968,14.4851613 47.6690323,15.6909677 47.6690323,17.2393548 C47.6690323,18.7780645 48.9270968,19.9729032 50.2987097,19.9729032 C50.9535484,19.9729032 51.4735484,19.6819355 51.743871,19.3496774 L51.7851613,19.3496774 L51.7851613,19.7445161 C51.7851613,20.7941935 51.223871,21.3554839 50.3193548,21.3554839 C49.5819355,21.3554839 49.1245161,20.8251613 48.9374194,20.3787097 L47.8877419,20.8148387 C48.1890323,21.5425806 48.9890323,22.4367742 50.3193548,22.4367742 C51.7335484,22.4367742 52.9283871,21.6051613 52.9283871,19.5780645 L52.9283871,14.6516129 L51.7851613,14.6516129 L51.7851613,15.0987097 Z M53.76,19.8070968 L54.9658065,19.8070968 L54.9658065,11.7412903 L53.76,11.7412903 L53.76,19.8070968 Z M56.7432258,17.1458065 C56.7116129,16.0858065 57.5645161,15.5451613 58.1774194,15.5451613 C58.656129,15.5451613 59.0612903,15.7845161 59.196129,16.1277419 L56.7432258,17.1458065 Z M60.4851613,16.2316129 C60.2567742,15.6180645 59.56,14.4851613 58.136129,14.4851613 C56.7225806,14.4851613 55.5477419,15.5974194 55.5477419,17.2290323 C55.5477419,18.7677419 56.7116129,19.9729032 58.2709677,19.9729032 C59.5290323,19.9729032 60.2567742,19.203871 60.5580645,18.7567742 L59.6225806,18.1335484 C59.3109677,18.5909677 58.8845161,18.8922581 58.2709677,18.8922581 C57.6574194,18.8922581 57.2212903,18.6116129 56.9406452,18.0606452 L60.6096774,16.5432258 L60.4851613,16.2316129 Z M31.2535484,15.3270968 L31.2535484,16.4909677 L34.0393548,16.4909677 C33.956129,17.1458065 33.7380645,17.623871 33.4051613,17.9567742 C33,18.3619355 32.3658065,18.8090323 31.2535484,18.8090323 C29.5387097,18.8090323 28.1980645,17.4264516 28.1980645,15.7116129 C28.1980645,13.9967742 29.5387097,12.6141935 31.2535484,12.6141935 C32.1787097,12.6141935 32.8541935,12.9780645 33.3535484,13.4458065 L34.1741935,12.6245161 C33.4780645,11.9593548 32.5529032,11.4503226 31.2535484,11.4503226 C28.9045161,11.4503226 26.9296774,13.3625806 26.9296774,15.7116129 C26.9296774,18.0606452 28.9045161,19.9729032 31.2535484,19.9729032 C32.5219355,19.9729032 33.4780645,19.5574194 34.2264516,18.7780645 C34.9954839,18.0083871 35.2348387,16.9277419 35.2348387,16.0548387 C35.2348387,15.7845161 35.2135484,15.5348387 35.1722581,15.3270968 L31.2535484,15.3270968 Z M38.4012903,18.8922581 C37.5696774,18.8922581 36.8529032,18.2064516 36.8529032,17.2290323 C36.8529032,16.2419355 37.5696774,15.5664516 38.4012903,15.5664516 C39.2329032,15.5664516 39.9496774,16.2419355 39.9496774,17.2290323 C39.9496774,18.2064516 39.2329032,18.8922581 38.4012903,18.8922581 Z M38.4012903,14.4851613 C36.883871,14.4851613 35.6470968,15.6387097 35.6470968,17.2290323 C35.6470968,18.8090323 36.883871,19.9729032 38.4012903,19.9729032 C39.9187097,19.9729032 41.1554839,18.8090323 41.1554839,17.2290323 C41.1554839,15.6387097 39.9187097,14.4851613 38.4012903,14.4851613 Z M44.4096774,18.8922581 C43.5787097,18.8922581 42.8612903,18.2064516 42.8612903,17.2290323 C42.8612903,16.2419355 43.5787097,15.5664516 44.4096774,15.5664516 C45.2412903,15.5664516 45.9587097,16.2419355 45.9587097,17.2290323 C45.9587097,18.2064516 45.2412903,18.8922581 44.4096774,18.8922581 Z M44.4096774,14.4851613 C42.8922581,14.4851613 41.6554839,15.6387097 41.6554839,17.2290323 C41.6554839,18.8090323 42.8922581,19.9729032 44.4096774,19.9729032 C45.9277419,19.9729032 47.1645161,18.8090323 47.1645161,17.2290323 C47.1645161,15.6387097 45.9277419,14.4851613 44.4096774,14.4851613 Z" id="Shape" fill="#FFFFFF" fill-rule="nonzero"></path>
            <path d="M7.2316129,21.3483871 L7.18387097,21.3025806 C6.99612903,21.103871 6.88516129,20.7954839 6.88516129,20.396129 L6.88516129,20.4896774 L6.88516129,6.22129032 L6.88516129,6.21806452 L6.88516129,6.31612903 C6.88516129,5.88387097 7.01483871,5.55741935 7.23096774,5.36258065 L15.2245161,13.3554839 L7.2316129,21.3483871 Z M6.88516129,6.21741935 C6.88516129,6.18193548 6.88645161,6.14709677 6.88774194,6.11354839 C6.88645161,6.14709677 6.88516129,6.18193548 6.88516129,6.21741935 Z" id="Shape" fill="url(#linearGradient-1)"></path>
            <path d="M17.8883871,16.1154839 L17.9490323,16.0806452 L21.1058065,14.2870968 C21.4070968,14.116129 21.6077419,13.9090323 21.7077419,13.6890323 C21.6077419,13.9090323 21.4070968,14.116129 21.1058065,14.2877419 L17.9490323,16.0812903 L17.8883871,16.1154839 Z M17.8890323,16.0206452 L15.2245161,13.3554839 L17.8890323,10.6909677 L21.1058065,12.5187097 C21.5148387,12.7503226 21.743871,13.0496774 21.7819355,13.3554839 L21.7819355,13.3567742 C21.743871,13.6612903 21.5148387,13.9606452 21.1058065,14.1929032 L17.8890323,16.0206452 Z" id="Shape" fill="url(#linearGradient-2)"></path>
            <path d="M7.80129032,21.6529032 C7.57806452,21.6529032 7.38387097,21.58 7.2316129,21.4432258 L7.2316129,21.4425806 C7.38387097,21.58 7.57870968,21.6529032 7.80193548,21.6529032 C7.82129032,21.6529032 7.84129032,21.6522581 7.86129032,21.6509677 C7.84129032,21.6522581 7.82129032,21.6529032 7.80129032,21.6529032 Z M7.80193548,21.5580688 C7.57870968,21.5587097 7.38387097,21.4858065 7.2316129,21.3483871 L15.2245161,13.3554839 L17.8890323,16.0206452 L8.52451613,21.3419355 C8.26580645,21.4890323 8.02,21.5580688 7.80193548,21.5580688 Z" id="Shape" fill="url(#linearGradient-3)"></path>
            <path d="M15.2245161,13.3554839 L7.23096774,5.36258065 C7.38322581,5.22580645 7.57741935,5.15290323 7.80064516,5.15290323 C8.01935484,5.15290323 8.26516129,5.22258065 8.52451613,5.37032258 L17.8890323,10.6909677 L15.2245161,13.3554839 Z M17.9490323,10.6309677 L8.52451613,5.27612903 C8.26516129,5.1283871 8.01935484,5.05870968 7.80064516,5.05870968 L7.79806452,5.05870968 L7.80129032,5.05870968 C8.02,5.05870968 8.26516129,5.1283871 8.52451613,5.27548387 L17.9490323,10.6303226 L17.9490323,10.6309677 Z" id="Shape" fill="url(#linearGradient-4)"></path>
            <path d="M7.86129032,21.6509677 C8.06387097,21.6393548 8.2883871,21.5696774 8.52451613,21.436129 L17.8883871,16.1154839 L8.52451613,21.436129 C8.2883871,21.5703226 8.06387097,21.64 7.86129032,21.6509677 Z" id="Shape" fill="#000000"></path>
            <path d="M17.8883871,16.1154839 L17.9490323,16.0806452 L17.8883871,16.1154839 Z" id="Path" fill="url(#linearGradient-5)"></path>
            <path d="M7.80193548,21.6529032 C7.57870968,21.6529032 7.38387097,21.58 7.2316129,21.4425806 L7.2316129,21.4432258 C7.23096774,21.4425806 7.23032258,21.4419355 7.22967742,21.4412903 L7.18774194,21.4006452 C7.18645161,21.3993548 7.18516129,21.3980645 7.18387097,21.3967742 L7.2316129,21.3483871 C7.38387097,21.4858065 7.57870968,21.5587097 7.80193548,21.5580645 C8.02,21.5580645 8.26580645,21.4890323 8.52451613,21.3419355 L17.8890323,16.0206452 L17.9490323,16.0806452 L17.8883871,16.1154839 L8.52451613,21.436129 C8.2883871,21.5696774 8.06387097,21.6393548 7.86129032,21.6509677 C7.84129032,21.6522581 7.82129032,21.6529032 7.80193548,21.6529032 Z" id="Path" fill="url(#linearGradient-6)"></path>
            <path d="M7.18387097,21.3967742 C6.99612903,21.1980645 6.88516129,20.8896774 6.88516129,20.4903226 L6.88516129,20.4896774 C6.88516129,20.8896774 6.99612903,21.1980645 7.18387097,21.396129 L7.18387097,21.3967742 Z" id="Path" fill="#000000"></path>
            <path d="M7.18387097,21.396129 C6.99612903,21.1980645 6.88516129,20.8896774 6.88516129,20.4896774 L6.88516129,20.396129 C6.88516129,20.7954839 6.99612903,21.103871 7.18387097,21.3025806 L7.2316129,21.3483871 L7.18387097,21.396129 Z" id="Path" fill="url(#linearGradient-7)"></path>
            <polygon id="Path" fill="url(#linearGradient-8)" points="7.18387097 21.3967742 7.18387097 21.396129 7.2316129 21.3483871"></polygon>
            <path d="M21.7077419,13.6890323 C21.7574194,13.5806452 21.7819355,13.4683871 21.7819355,13.3567742 C21.7819355,13.356129 21.7825806,13.356129 21.7825806,13.356129 C21.7825806,13.4683871 21.7574194,13.58 21.7077419,13.6890323 Z" id="Path" fill="#000000"></path>
            <path d="M17.9490323,16.0806452 L17.8890323,16.0206452 L21.1058065,14.1929032 C21.5148387,13.9606452 21.743871,13.6612903 21.7819355,13.3567742 C21.7819355,13.4683871 21.7574194,13.5806452 21.7077419,13.6890323 C21.6077419,13.9090323 21.4070968,14.116129 21.1058065,14.2870968 L17.9490323,16.0806452 Z" id="Path" fill="url(#linearGradient-9)"></path>
            <path d="M21.7825806,13.3554839 L21.7819355,13.3554839 C21.7819355,13.0180645 21.5567742,12.6806452 21.1058065,12.4245161 L17.9490323,10.6309677 L17.9490323,10.6303226 L21.1058065,12.4245161 C21.5567742,12.6806452 21.7825806,13.0180645 21.7825806,13.3554839 Z" id="Path" fill="#404040" fill-rule="nonzero"></path>
            <path d="M21.7819355,13.3554839 C21.743871,13.0496774 21.5148387,12.7503226 21.1058065,12.5187097 L17.8890323,10.6909677 L17.9490323,10.6309677 L21.1058065,12.4245161 C21.5567742,12.6806452 21.7819355,13.0180645 21.7819355,13.3554839 Z" id="Path" fill="url(#linearGradient-10)"></path>
            <path d="M6.8883871,6.10645161 C6.92580645,5.44387097 7.28580645,5.06129032 7.79548387,5.05870968 C7.57483871,5.06 7.38258065,5.13225806 7.2316129,5.2683871 L7.22967742,5.27032258 C7.21419355,5.28451613 7.19870968,5.29935484 7.18387097,5.31483871 C7.01483871,5.49419355 6.90774194,5.76258065 6.8883871,6.10645161 Z" id="Shape" fill="#404040" fill-rule="nonzero"></path>
            <path d="M6.88516129,6.31612903 L6.88516129,6.22193548 L6.88516129,6.21806452 L6.88516129,6.21741935 C6.88516129,6.18193548 6.88645161,6.14709677 6.88774194,6.11354839 C6.8883871,6.11290323 6.8883871,6.11225806 6.8883871,6.1116129 L6.8883871,6.11032258 L6.8883871,6.10709677 L6.8883871,6.10645161 C6.90774194,5.76258065 7.01483871,5.49419355 7.18387097,5.31483871 L7.23096774,5.36258065 C7.01483871,5.55741935 6.88516129,5.88387097 6.88516129,6.31612903 Z" id="Shape" fill="url(#linearGradient-11)"></path>
            <path d="M7.79548387,5.05870968 L7.79806452,5.05870968 L7.79548387,5.05870968 Z" id="Path" fill="#404040" fill-rule="nonzero"></path>
            <path d="M17.8890323,10.6909677 L8.52451613,5.37032258 C8.26516129,5.22258065 8.01935484,5.15290323 7.80064516,5.15290323 C7.57741935,5.15290323 7.38322581,5.22580645 7.23096774,5.36258065 L7.18387097,5.31483871 C7.19870968,5.29935484 7.21419355,5.28451613 7.22967742,5.27032258 C7.23032258,5.26967742 7.23096774,5.26903226 7.2316129,5.2683871 C7.38258065,5.13225806 7.57483871,5.06 7.79548387,5.05870968 L7.80064516,5.05870968 C8.01935484,5.05870968 8.26516129,5.1283871 8.52451613,5.27612903 L17.9490323,10.6309677 L17.8890323,10.6909677 Z" id="Path" fill="url(#linearGradient-12)"></path>
        </g>
    </g>
</svg>