<?xml version="1.0" encoding="UTF-8"?>
<svg width="205px" height="73px" viewBox="0 0 205 73" version="1.1" xmlns="http://www.w3.org/2000/svg" xmlns:xlink="http://www.w3.org/1999/xlink">
    <!-- Generator: Sketch 64 (93537) - https://sketch.com -->
    <title>Download_on_Apple_TV_Badge_US-UK_RGB_wht_092917</title>
    <desc>Created with Sketch.</desc>
    <g id="Page-1" stroke="none" stroke-width="1" fill="none" fill-rule="evenodd">
        <g id="Landing-Page" transform="translate(-997.000000, -730.000000)" fill-rule="nonzero">
            <g id="Group-2" transform="translate(410.000000, 712.000000)">
                <g id="Download_on_Apple_TV_Badge_US-UK_RGB_wht_092917" transform="translate(587.700000, 18.900000)">
                    <g id="Group">
                        <g id="Path">
                            <path d="M186.804144,-0.000234 L17.162424,-0.000234 C16.502364,-0.000234 15.850224,-0.000234 15.19191,0.0036 C14.64084,0.0072 14.094162,0.017658 13.5378,0.02646 C12.3291246,0.0406832465 11.1232916,0.147017268 9.93078,0.344538 C8.73994335,0.54635873 7.58641053,0.926848333 6.509196,1.473138 C5.43329894,2.02404908 4.45022103,2.73990155 3.595626,3.594726 C2.7365445,4.44714659 2.02043373,5.43242948 1.47483,6.512688 C0.927720435,7.59079642 0.548352897,8.74608893 0.34983,9.938664 C0.149419694,11.1297328 0.0415770852,12.334537 0.02727,13.542264 C0.010566,14.094144 0.008802,14.64786 0,15.199812 L0,56.80548 C0.008802,57.36438 0.010566,57.90582 0.02727,58.4649 C0.0415814725,59.6725671 0.149424083,60.8773111 0.34983,62.06832 C0.547804715,63.2615923 0.927194684,64.417548 1.47483,65.49606 C2.02018599,66.5728252 2.73639746,67.5541192 3.595626,68.4018 C4.44698068,69.2604253 5.43069402,69.9767648 6.509196,70.52346 C7.58640235,71.0712118 8.7398108,71.4539661 9.93078,71.6589 C11.1234944,71.8548385 12.3292033,71.9612157 13.5378,71.97714 C14.094162,71.98938 14.64084,71.9964 15.19191,71.9964 C15.850206,72 16.5024,72 17.162424,72 L186.804144,72 C187.451064,72 188.108424,72 188.755344,71.9964 C189.303804,71.9964 189.866304,71.98938 190.414764,71.97714 C191.621076,71.9620627 192.824515,71.8556786 194.014764,71.6589 C195.209575,71.4525235 196.367119,71.0698705 197.449524,70.52346 C198.527053,69.9764483 199.509859,69.2601283 200.360484,68.4018 C201.217496,67.5507993 201.935236,66.5702231 202.487364,65.49606 C203.03089,64.4167634 203.406668,63.2609001 203.601744,62.06832 C203.802471,60.8771477 203.91414,59.6726717 203.935824,58.4649 C203.942844,57.90582 203.942844,57.36438 203.942844,56.80548 C203.956884,56.15154 203.956884,55.5012 203.956884,54.83664 L203.956884,17.165034 C203.956884,16.505856 203.956884,15.851952 203.942844,15.199812 C203.942844,14.64786 203.942844,14.094144 203.935824,13.542192 C203.914144,12.3343604 203.802475,11.1298242 203.601744,9.938592 C203.406125,8.74670688 203.030368,7.5915059 202.487364,6.512616 C201.376268,4.34735294 199.61439,2.58484571 197.449524,1.472976 C196.367116,0.928021284 195.209448,0.547632738 194.014764,0.344376 C192.824721,0.14598501 191.621156,0.0396139768 190.414764,0.026208 C189.866304,0.017424 189.303804,0.006876 188.755344,0.003366 C188.108424,-0.000234 187.451064,-0.000234 186.804144,-0.000234 L186.804144,-0.000234 Z" fill="#000000"></path>
                            <path d="M15.200694,70.425 C14.65227,70.425 14.117004,70.41798 13.572972,70.40574 C12.4457792,70.3910533 11.3212209,70.2929251 10.20852,70.11216 C9.17098254,69.9334707 8.16588764,69.6010761 7.226388,69.12594 C6.29550307,68.6547408 5.44646118,68.0368911 4.711788,67.29606 C3.96648059,66.5639555 3.34597812,65.7148391 2.87487,64.78236 C2.39857067,63.8438204 2.06894319,62.8378192 1.89747,61.7994 C1.71229398,60.6836068 1.61210601,59.5553638 1.59777,58.4244 C1.586358,58.04478 1.571418,56.78082 1.571418,56.78082 L1.571418,15.199812 C1.571418,15.199812 1.58733,13.955274 1.59786,13.58964 C1.61158656,12.4604677 1.71119193,11.3339756 1.895814,10.219914 C2.0676037,9.17865014 2.39748637,8.16974796 2.874042,7.228134 C3.34341868,6.29629893 3.96047625,5.44654853 4.701294,4.711824 C5.44127909,3.97011855 6.2930369,3.34908741 7.225506,2.871378 C8.1628464,2.39776849 9.1660418,2.06771858 10.201482,1.892286 C11.3178372,1.70970505 12.4462995,1.61099295 13.5774,1.596978 L15.201576,1.575 L188.746524,1.575 L190.390104,1.59786 C191.510916,1.61117849 192.629127,1.70900994 193.735224,1.890522 C194.781146,2.06815512 195.794797,2.40050796 196.742844,2.876652 C198.610917,3.83937489 200.130933,5.36249331 201.089844,7.232526 C201.558793,8.16763961 201.883588,9.16831216 202.053204,10.200582 C202.240025,11.3237845 202.344582,12.459129 202.366044,13.59756 C202.371264,14.10732 202.371264,14.65488 202.371264,15.199812 C202.385484,15.874812 202.385484,16.517286 202.385484,17.165034 L202.385484,54.83664 C202.385484,55.49058 202.385484,56.12868 202.371264,56.772 C202.371264,57.35736 202.371264,57.89358 202.364244,58.44546 C202.343247,59.5635762 202.240432,60.6786556 202.056624,61.78176 C201.888666,62.8276701 201.560833,63.8415236 201.084624,64.78776 C200.610186,65.710118 199.993246,66.5518791 199.256544,67.28202 C198.52121,68.0268323 197.67067,68.6482969 196.737624,69.12252 C195.792203,69.6013086 194.780045,69.9349325 193.735224,70.11216 C192.622607,70.2938897 191.497941,70.3920243 190.370664,70.40574 C189.843444,70.41798 189.291384,70.425 188.755344,70.425 L186.804144,70.4286 L15.200694,70.425 Z" fill="#FFFFFF"></path>
                        </g>
                        <g id="_Group_" transform="translate(17.100000, 13.500000)" fill="#000000">
                            <g id="_Group_2">
                                <g id="_Group_3">
                                    <path d="M27.878004,22.3092 C27.9189443,19.1349741 29.5830733,16.2029714 32.287374,14.5404 C30.5735801,12.0928059 27.8059983,10.5966156 24.819516,10.50318 C21.67749,10.173366 18.63144,12.383316 17.030304,12.383316 C15.398208,12.383316 12.933018,10.535922 10.278504,10.590516 C6.7857626,10.7033611 3.60851621,12.6410468 1.909224,15.694632 C-1.709388,21.959856 0.989748,31.16763 4.456224,36.231966 C6.190542,38.711826 8.217468,41.4819 10.869624,41.383674 C13.464954,41.276034 14.434254,39.728736 17.567028,39.728736 C20.670732,39.728736 21.580146,41.383674 24.286158,41.321232 C27.071082,41.276034 28.825758,38.830356 30.499164,36.327006 C31.7452744,34.5600105 32.704154,32.6070953 33.340284,30.5406 C30.032605,29.141626 27.8818627,25.9005582 27.878004,22.3092 Z" id="_Path_"></path>
                                    <path d="M22.766868,7.17246 C24.2853139,5.34961831 25.033393,3.00666486 24.85224,0.64116 C22.5323883,0.884817893 20.3894961,1.99355898 18.850536,3.746466 C17.3308768,5.4759414 16.5610212,7.73856148 16.710534,10.035972 C19.061496,10.0601677 21.2936818,9.00476183 22.766868,7.17246 L22.766868,7.17246 Z" id="_Path_2"></path>
                                </g>
                            </g>
                            <g id="Group" transform="translate(44.100000, 18.900000)">
                                <path d="M14.944086,16.45137 L6.423966,16.45137 L4.37787,22.49298 L0.769086,22.49298 L8.839206,0.14058 L12.588606,0.14058 L20.658726,22.49298 L16.9884,22.49298 L14.944086,16.45137 Z M7.30638,13.663476 L14.05998,13.663476 L10.730682,3.85839 L10.637514,3.85839 L7.30638,13.663476 Z" id="Shape"></path>
                                <path d="M38.087442,14.345514 C38.087442,19.409778 35.376894,22.663476 31.286466,22.663476 C29.1721595,22.7740763 27.1805983,21.6666552 26.158932,19.812276 L26.081532,19.812276 L26.081532,27.88416 L22.736412,27.88416 L22.736412,6.196284 L25.97436,6.196284 L25.97436,8.906832 L26.035884,8.906832 C27.102939,7.06407825 29.0966477,5.95713391 31.224942,6.02577 C35.361,6.025788 38.087442,9.295308 38.087442,14.345514 Z M34.649154,14.345514 C34.649154,11.046114 32.944068,8.876952 30.34251,8.876952 C27.786654,8.876952 26.06751,11.091798 26.06751,14.345514 C26.06751,17.62911 27.786654,19.828134 30.34251,19.828134 C32.944086,19.828134 34.649154,17.674812 34.649154,14.345514 Z" id="Shape"></path>
                                <path d="M56.024154,14.345514 C56.024154,19.409778 53.313606,22.663476 49.223178,22.663476 C47.1088715,22.7740763 45.1173103,21.6666552 44.095644,19.812276 L44.018244,19.812276 L44.018244,27.88416 L40.673124,27.88416 L40.673124,6.196284 L43.911,6.196284 L43.911,8.906832 L43.972524,8.906832 C45.0395867,7.06407937 47.0333031,5.95714153 49.1616,6.025788 C53.297784,6.025788 56.024154,9.295308 56.024154,14.345514 Z M52.585884,14.345514 C52.585884,11.046114 50.88078,8.876952 48.279222,8.876952 C45.723366,8.876952 44.004222,11.091798 44.004222,14.345514 C44.004222,17.62911 45.723366,19.828134 48.279222,19.828134 C50.880798,19.828134 52.585884,17.674812 52.585884,14.345514 L52.585884,14.345514 Z" id="Shape"></path>
                                <polygon id="Path" points="58.731192 0.140634 62.078076 0.140634 62.078076 22.493034 58.731192 22.493034"></polygon>
                                <path d="M79.496226,17.706438 C79.046226,20.664828 76.165164,22.695102 72.479034,22.695102 C67.738212,22.695102 64.795644,19.518732 64.795644,14.422842 C64.795644,9.31113 67.754034,5.99589 72.3384,5.99589 C76.847202,5.99589 79.682562,9.09315 79.682562,14.034366 L79.682562,15.180462 L68.172408,15.180462 L68.172408,15.382602 C68.0649433,16.5958589 68.4838828,17.796815 69.3226619,18.6799859 C70.1614409,19.5631567 71.3392155,20.0434199 72.556398,19.998612 C74.1797141,20.1507113 75.7101835,19.2185598 76.319874,17.70642 L79.496226,17.706438 Z M68.1881983,12.842586 L76.335678,12.842586 C76.3963786,11.7523737 75.9995303,10.6862801 75.2407439,9.90113596 C74.4819575,9.11599186 73.4300309,8.6829851 72.3384,8.706438 C71.2381383,8.69987683 70.1808391,9.13308928 69.4015056,9.90978626 C68.6221722,10.6864832 68.1853793,11.7423084 68.1881983,12.842586 L68.1881983,12.842586 Z" id="Shape"></path>
                                <polygon id="Path" points="94.664394 22.492962 94.664394 3.128904 87.817716 3.128904 87.817716 0.140634 104.9652 0.140634 104.9652 3.128922 98.134308 3.128922 98.134308 22.492962"></polygon>
                                <polygon id="Path" points="114.119856 22.492962 106.14114 0.140562 109.90638 0.140562 115.993692 18.588762 116.08686 18.588762 122.189994 0.140562 125.892 0.140562 117.915048 22.492962"></polygon>
                            </g>
                        </g>
                    </g>
                    <g id="_Group_4" transform="translate(63.900000, 14.400000)" fill="#000000">
                        <g id="Group">
                            <path d="M4.187142,1.3158 C5.6072458,1.21389153 6.99820608,1.75418537 7.97717032,2.78796927 C8.95613457,3.82175317 9.41991457,5.24006062 9.240858,6.652512 C9.240858,10.083762 7.386372,12.056112 4.187142,12.056112 L0.307656,12.056112 L0.307656,1.3158 L4.187142,1.3158 Z M1.975806,10.5372 L4.000806,10.5372 C5.0156855,10.5978636 6.00387574,10.1980062 6.69099333,9.44865322 C7.37811091,8.69930023 7.6910033,7.68022995 7.542792,6.6744 C7.68022023,5.67274416 7.36282185,4.66208319 6.67740794,3.91884117 C5.99199402,3.17559914 5.0102922,2.77755534 4.000806,2.833578 L1.975806,2.833578 L1.975806,10.5372 Z" id="Shape"></path>
                            <path d="M11.125224,7.999812 C10.9862408,6.54700509 11.6828706,5.14100148 12.9229487,4.37147526 C14.1630267,3.60194904 15.7321473,3.60194904 16.9722253,4.37147526 C18.2123034,5.14100148 18.9089332,6.54700509 18.76995,7.999812 C18.9115775,9.45418007 18.2155836,10.8629107 16.974406,11.6340935 C15.7332284,12.4052764 14.1619456,12.4052764 12.920768,11.6340935 C11.6795904,10.8629107 10.9835965,9.45418007 11.125224,7.999812 Z M17.124642,7.999812 C17.124642,6.242886 16.33536,5.215446 14.950224,5.215446 C13.559796,5.215446 12.777624,6.242886 12.777624,7.99983 C12.777624,9.770832 13.55985,10.790352 14.950224,10.790352 C16.335396,10.790352 17.124642,9.763776 17.124642,7.999812 L17.124642,7.999812 Z" id="Shape"></path>
                            <polygon id="Path" points="28.931868 12.05595 27.272502 12.05595 25.597314 6.086412 25.470756 6.086412 23.802588 12.05595 22.159026 12.05595 19.924848 3.950676 21.547314 3.950676 22.999266 10.135476 23.118804 10.135476 24.785208 3.950676 26.31978 3.950676 27.986184 10.135476 28.112742 10.135476 29.557656 3.950676 31.157262 3.950676"></polygon>
                            <path d="M33.036354,3.950676 L34.5762,3.950676 L34.5762,5.23827 L34.695738,5.23827 C35.1114207,4.29026029 36.0827511,3.71035345 37.114488,3.79422 C37.9133582,3.73415719 38.6961946,4.04062182 39.2419634,4.62708373 C39.7877322,5.21354563 40.0372075,6.01636277 39.91995,6.80886 L39.91995,12.05586 L38.320344,12.05586 L38.320344,7.210548 C38.320344,5.908014 37.754334,5.260248 36.57132,5.260248 C36.0294585,5.23501041 35.5035963,5.44766862 35.1315983,5.84247021 C34.7596003,6.23727179 34.5785671,6.77484182 34.63596,7.314246 L34.63596,12.05595 L33.036354,12.05595 L33.036354,3.950676 Z" id="Path"></path>
                            <polygon id="Path" points="42.468786 0.7866 44.068392 0.7866 44.068392 12.055932 42.468786 12.055932"></polygon>
                            <path d="M46.292022,7.999812 C46.1531456,6.54691005 46.8498852,5.14087085 48.0900553,4.37133276 C49.3302254,3.60179468 50.8994266,3.60179468 52.1395967,4.37133276 C53.3797668,5.14087085 54.0765064,6.54691005 53.93763,7.999812 C54.0790776,9.45423214 53.3829562,10.8629229 52.141717,11.6340718 C50.9004778,12.4052207 49.3291742,12.4052207 48.087935,11.6340718 C46.8466958,10.8629229 46.1505744,9.45423214 46.292022,7.999812 L46.292022,7.999812 Z M52.292322,7.999812 C52.292322,6.242886 51.503058,5.215446 50.117922,5.215446 C48.727494,5.215446 47.945322,6.242886 47.945322,7.99983 C47.945322,9.770832 48.727548,10.790352 50.117922,10.790352 C51.503058,10.790352 52.292322,9.763776 52.292322,7.999812 Z" id="Shape"></path>
                            <path d="M55.62162,9.763776 C55.62162,8.304786 56.707956,7.463682 58.63626,7.344144 L60.831774,7.217586 L60.831774,6.51798 C60.831774,5.661918 60.265764,5.178528 59.172408,5.178528 C58.279446,5.178528 57.660696,5.506362 57.483144,6.07941 L55.934514,6.07941 C56.09799,4.687218 57.407562,3.794256 59.246226,3.794256 C61.278264,3.794256 62.42436,4.805856 62.42436,6.51798 L62.42436,12.055968 L60.884514,12.055968 L60.884514,10.91691 L60.757956,10.91691 C60.2349635,11.7487374 59.3049126,12.2348938 58.323384,12.18951 C57.635309,12.2610813 56.9490681,12.0382392 56.4343125,11.5760744 C55.9195568,11.1139096 55.6243309,10.455558 55.62162,9.763776 L55.62162,9.763776 Z M60.831774,9.07119 L60.831774,8.393562 L58.852476,8.52012 C57.73626,8.59482 57.23001,8.974512 57.23001,9.689058 C57.23001,10.418544 57.862818,10.843056 58.73301,10.843056 C59.2481449,10.8952018 59.7623875,10.7360551 60.1580167,10.4020481 C60.5536459,10.068041 60.7967849,9.5877739 60.831774,9.07119 Z" id="Shape"></path>
                            <path d="M64.526688,7.999812 C64.526688,5.438682 65.843298,3.816216 67.89114,3.816216 C68.9251982,3.76857024 69.8936896,4.32265116 70.376688,5.238216 L70.496226,5.238216 L70.496226,0.7866 L72.095832,0.7866 L72.095832,12.055932 L70.563024,12.055932 L70.563024,10.775358 L70.436466,10.775358 C69.9169575,11.6833266 68.9365342,12.2280417 67.891158,12.18951 C65.82924,12.1896 64.526688,10.567098 64.526688,7.999812 Z M66.179088,7.999812 C66.179088,9.718956 66.989448,10.753434 68.344722,10.753434 C69.692922,10.753434 70.52616,9.704034 70.52616,8.00685 C70.52616,6.317586 69.684174,5.253228 68.344722,5.253228 C66.998178,5.253228 66.179034,6.294726 66.179034,7.999812 L66.179088,7.999812 Z" id="Shape"></path>
                            <path d="M78.714,7.999812 C78.5750168,6.54700509 79.2716466,5.14100148 80.5117247,4.37147526 C81.7518027,3.60194904 83.3209233,3.60194904 84.5610013,4.37147526 C85.8010794,5.14100148 86.4977092,6.54700509 86.358726,7.999812 C86.5003535,9.45418007 85.8043596,10.8629107 84.563182,11.6340935 C83.3220044,12.4052764 81.7507216,12.4052764 80.509544,11.6340935 C79.2683664,10.8629107 78.5723725,9.45418007 78.714,7.999812 L78.714,7.999812 Z M84.7134,7.999812 C84.7134,6.242886 83.924136,5.215446 82.539,5.215446 C81.148572,5.215446 80.3664,6.242886 80.3664,7.99983 C80.3664,9.770832 81.148626,10.790352 82.539,10.790352 C83.924154,10.790352 84.7134,9.763776 84.7134,7.999812 Z" id="Shape"></path>
                            <path d="M88.50501,3.950676 L90.044856,3.950676 L90.044856,5.23827 L90.164394,5.23827 C90.5800767,4.29026029 91.5514071,3.71035345 92.583144,3.79422 C93.3820142,3.73415719 94.1648506,4.04062182 94.7106194,4.62708373 C95.2563882,5.21354563 95.5058635,6.01636277 95.388606,6.80886 L95.388606,12.05586 L93.789,12.05586 L93.789,7.210548 C93.789,5.908014 93.22299,5.260248 92.039976,5.260248 C91.4981145,5.23501041 90.9722523,5.44766862 90.6002543,5.84247021 C90.2282563,6.23727179 90.0472231,6.77484182 90.104616,7.314246 L90.104616,12.05595 L88.50501,12.05595 L88.50501,3.950676 Z" id="Path"></path>
                        </g>
                    </g>
                </g>
            </g>
        </g>
    </g>
</svg>