<?xml version="1.0" encoding="UTF-8"?>
<svg width="216px" height="73px" viewBox="0 0 216 73" version="1.1" xmlns="http://www.w3.org/2000/svg" xmlns:xlink="http://www.w3.org/1999/xlink">
    <!-- Generator: Sketch 64 (93537) - https://sketch.com -->
    <title>Download_on_the_App_Store_Badge_US-UK_RGB_wht_092917</title>
    <desc>Created with Sketch.</desc>
    <g id="Page-1" stroke="none" stroke-width="1" fill="none" fill-rule="evenodd">
        <g id="Landing-Page" transform="translate(-410.000000, -730.000000)" fill-rule="nonzero">
            <g id="Group-2" transform="translate(410.000000, 712.000000)">
                <g id="Download_on_the_App_Store_Badge_US-UK_RGB_wht_092917" transform="translate(0.000000, 18.900000)">
                    <g id="Group">
                        <g id="Path">
                            <path d="M198.242586,-0.000234 L17.162424,-0.000234 C16.502364,-0.000234 15.850224,-0.000234 15.19191,0.0036 C14.64084,0.0072 14.094162,0.017658 13.5378,0.02646 C12.3291246,0.0406832465 11.1232916,0.147017268 9.93078,0.344538 C8.73994335,0.54635873 7.58641053,0.926848333 6.509196,1.473138 C5.43329894,2.02404908 4.45022103,2.73990155 3.595626,3.594726 C2.7365445,4.44714659 2.02043373,5.43242948 1.47483,6.512688 C0.927720435,7.59079642 0.548352897,8.74608893 0.34983,9.938664 C0.149419694,11.1297328 0.0415770852,12.334537 0.02727,13.542264 C0.010566,14.094144 0.008802,14.64786 0,15.199812 L0,56.80548 C0.008802,57.36438 0.010566,57.90582 0.02727,58.4649 C0.0415814725,59.6725671 0.149424083,60.8773111 0.34983,62.06832 C0.547804715,63.2615923 0.927194684,64.417548 1.47483,65.49606 C2.02018599,66.5728252 2.73639746,67.5541192 3.595626,68.4018 C4.44698068,69.2604253 5.43069402,69.9767648 6.509196,70.52346 C7.58640235,71.0712118 8.7398108,71.4539661 9.93078,71.6589 C11.1234944,71.8548385 12.3292033,71.9612157 13.5378,71.97714 C14.094162,71.98938 14.64084,71.9964 15.19191,71.9964 C15.850206,72 16.5024,72 17.162424,72 L198.242586,72 C198.889506,72 199.546866,72 200.193786,71.9964 C200.742246,71.9964 201.304746,71.98938 201.853206,71.97714 C203.059518,71.9620627 204.262957,71.8556786 205.453206,71.6589 C206.648017,71.4525235 207.805561,71.0698705 208.887966,70.52346 C209.965495,69.9764483 210.948301,69.2601283 211.798926,68.4018 C212.655938,67.5507993 213.373678,66.5702231 213.925806,65.49606 C214.469332,64.4167634 214.84511,63.2609001 215.040186,62.06832 C215.240913,60.8771477 215.352582,59.6726717 215.374266,58.4649 C215.381286,57.90582 215.381286,57.36438 215.381286,56.80548 C215.395326,56.15154 215.395326,55.5012 215.395326,54.83664 L215.395326,17.165034 C215.395326,16.505856 215.395326,15.851952 215.381286,15.199812 C215.381286,14.64786 215.381286,14.094144 215.374266,13.542192 C215.352586,12.3343604 215.240917,11.1298242 215.040186,9.938592 C214.844567,8.74670688 214.46881,7.5915059 213.925806,6.512616 C212.81471,4.34735294 211.052832,2.58484571 208.887966,1.472976 C207.805558,0.928021284 206.64789,0.547632738 205.453206,0.344376 C204.263163,0.14598501 203.059598,0.0396139768 201.853206,0.026208 C201.304746,0.017424 200.742246,0.006876 200.193786,0.003366 C199.546866,-0.000234 198.889506,-0.000234 198.242586,-0.000234 L198.242586,-0.000234 Z" fill="#000000"></path>
                            <path d="M15.200694,70.425 C14.65227,70.425 14.117094,70.41798 13.572972,70.40574 C12.4457792,70.3910533 11.3212209,70.2929251 10.20852,70.11216 C9.17098254,69.9334707 8.16588764,69.6010761 7.226388,69.12594 C6.29550307,68.6547408 5.44646118,68.0368911 4.711788,67.29606 C3.96648059,66.5639555 3.34597812,65.7148391 2.87487,64.78236 C2.39857067,63.8438204 2.06894319,62.8378192 1.89747,61.7994 C1.71229384,60.6836068 1.61210587,59.5553638 1.59777,58.4244 C1.586358,58.04478 1.571418,56.78082 1.571418,56.78082 L1.571418,15.199812 C1.571418,15.199812 1.58733,13.955274 1.59786,13.58964 C1.61158649,12.4604677 1.71119187,11.3339756 1.895814,10.219914 C2.0676037,9.17865014 2.39748637,8.16974796 2.874042,7.228134 C3.34341868,6.29629893 3.96047625,5.44654853 4.701294,4.711824 C5.44127909,3.97011855 6.2930369,3.34908741 7.225506,2.871378 C8.1628464,2.39776849 9.1660418,2.06771858 10.201482,1.892286 C11.3178372,1.70970505 12.4462995,1.61099295 13.5774,1.596978 L15.201576,1.575 L200.184966,1.575 L201.828546,1.59786 C202.949358,1.61117856 204.067569,1.70901001 205.173666,1.890522 C206.219588,2.06815512 207.233239,2.40050796 208.181286,2.876652 C210.049359,3.83937489 211.569375,5.36249331 212.528286,7.232526 C212.997235,8.16763961 213.32203,9.16831216 213.491646,10.200582 C213.678467,11.3237845 213.783024,12.459129 213.804486,13.59756 C213.809706,14.10732 213.809706,14.65488 213.809706,15.199812 C213.823926,15.874812 213.823926,16.517286 213.823926,17.165034 L213.823926,54.83664 C213.823926,55.49058 213.823926,56.12868 213.809706,56.772 C213.809706,57.35736 213.809706,57.89358 213.802686,58.44546 C213.781689,59.5635762 213.678874,60.6786556 213.495066,61.78176 C213.327108,62.8276701 212.999275,63.8415236 212.523066,64.78776 C212.048628,65.710118 211.431688,66.5518791 210.694986,67.28202 C209.959652,68.0268323 209.109112,68.6482969 208.176066,69.12252 C207.230645,69.6013086 206.218487,69.9349325 205.173666,70.11216 C204.061049,70.2938897 202.936383,70.3920243 201.809106,70.40574 C201.281886,70.41798 200.729826,70.425 200.193786,70.425 L198.242586,70.4286 L15.200694,70.425 Z" fill="#FFFFFF"></path>
                        </g>
                        <g id="_Group_" transform="translate(17.100000, 13.500000)" fill="#000000">
                            <g id="_Group_2">
                                <g id="_Group_3">
                                    <path d="M27.894078,22.30083 C27.9349924,19.1253537 29.599758,16.1921806 32.305122,14.528952 C30.5906767,12.0804228 27.8220412,10.5836589 24.83442,10.490184 C21.691188,10.160244 18.643986,12.37104 17.04222,12.37104 C15.409494,12.37104 12.943386,10.522944 10.287774,10.577574 C6.79370243,10.6904611 3.61524595,12.6288851 1.915308,15.683634 C-1.70469,21.951234 0.995508,31.162536 4.463226,36.228834 C6.19821,38.709648 8.225892,41.480766 10.87911,41.382504 C13.47543,41.27481 14.445108,39.726918 17.57907,39.726918 C20.683962,39.726918 21.5937,41.382504 24.300756,41.320026 C27.086742,41.27481 28.842012,38.828196 30.516156,36.323892 C31.7627403,34.5562262 32.7219844,32.6025698 33.358356,30.53529 C30.0494576,29.135789 27.8979288,25.8935165 27.894078,22.30083 Z" id="_Path_"></path>
                                    <path d="M22.780998,7.158258 C24.3000377,5.33472338 25.0484143,2.9908712 24.867198,0.624456 C22.5464643,0.868202872 20.4027561,1.97736165 18.863208,3.730932 C17.342973,5.46106697 16.5728262,7.72454778 16.722396,10.022832 C19.074237,10.0470408 21.307259,8.99124335 22.780998,7.158258 Z" id="_Path_2"></path>
                                </g>
                            </g>
                            <g id="Group" transform="translate(44.100000, 18.000000)">
                                <path d="M14.943204,17.35137 L6.423084,17.35137 L4.376988,23.39298 L0.768204,23.39298 L8.838324,1.04058 L12.587724,1.04058 L20.657844,23.39298 L16.987536,23.39298 L14.943204,17.35137 Z M7.305516,14.563476 L14.059116,14.563476 L10.7298,4.75839 L10.63656,4.75839 L7.305516,14.563476 Z" id="Shape"></path>
                                <path d="M38.08656,15.245514 C38.08656,20.309778 35.376012,23.563476 31.285584,23.563476 C29.1712775,23.6740763 27.1797163,22.5666552 26.15805,20.712276 L26.08065,20.712276 L26.08065,28.78416 L22.73553,28.78416 L22.73553,7.096284 L25.973424,7.096284 L25.973424,9.806832 L26.034948,9.806832 C27.102003,7.96407825 29.0957117,6.85713391 31.224006,6.92577 C35.36019,6.925788 38.08656,10.195308 38.08656,15.245514 Z M34.648272,15.245514 C34.648272,11.946114 32.943186,9.776952 30.341628,9.776952 C27.785772,9.776952 26.066628,11.991798 26.066628,15.245514 C26.066628,18.52911 27.785772,20.728134 30.341628,20.728134 C32.943204,20.728134 34.648272,18.574812 34.648272,15.245514 L34.648272,15.245514 Z" id="Shape"></path>
                                <path d="M56.024154,15.245514 C56.024154,20.309778 53.312724,23.563476 49.222296,23.563476 C47.1079895,23.6740763 45.1164283,22.5666552 44.094762,20.712276 L44.017362,20.712276 L44.017362,28.78416 L40.672242,28.78416 L40.672242,7.096284 L43.910136,7.096284 L43.910136,9.806832 L43.97166,9.806832 C45.038715,7.96407825 47.0324237,6.85713391 49.160718,6.92577 C53.29692,6.925788 56.024154,10.195308 56.024154,15.245514 Z M52.585002,15.245514 C52.585002,11.946114 50.879916,9.776952 48.278358,9.776952 C45.722502,9.776952 44.003358,11.991798 44.003358,15.245514 C44.003358,18.52911 45.722502,20.728134 48.278358,20.728134 C50.879916,20.728134 52.585002,18.574812 52.585002,15.245514 L52.585002,15.245514 Z" id="Shape"></path>
                                <path d="M67.877082,17.165034 C68.124942,19.381644 70.278282,20.837034 73.220832,20.837034 C76.04037,20.837034 78.06888,19.381572 78.06888,17.382924 C78.06888,15.647958 76.845438,14.609124 73.948572,13.897188 L71.051706,13.199328 C66.94722,12.207924 65.04174,10.288386 65.04174,7.17354 C65.04174,3.316896 68.402682,0.667872 73.173384,0.667872 C77.898384,0.667872 81.136278,3.316896 81.245268,7.17354 L77.868468,7.17354 C77.666328,4.942872 75.822372,3.5964 73.127646,3.5964 C70.43292,3.5964 68.588982,4.958712 68.588982,6.94152 C68.588982,8.521794 69.766722,9.451674 72.647766,10.16352 L75.110454,10.768212 C79.696584,11.852784 81.6003,13.695012 81.6003,16.964496 C81.6003,21.146328 78.271002,23.765472 72.9729,23.765472 C68.015862,23.765472 64.668996,21.207852 64.45278,17.164872 L67.877082,17.165034 Z" id="Path"></path>
                                <path d="M88.823178,3.23964 L88.823178,7.096284 L91.922202,7.096284 L91.922202,9.745308 L88.823178,9.745308 L88.823178,18.729486 C88.823178,20.125188 89.443692,20.775582 90.805986,20.775582 C91.1738906,20.7691667 91.5411999,20.7433307 91.90638,20.698182 L91.90638,23.331384 C91.293891,23.4458272 90.6713475,23.4976581 90.048366,23.486076 C86.748966,23.486076 85.462236,22.246812 85.462236,19.086264 L85.462236,9.745308 L83.092716,9.745308 L83.092716,7.096284 L85.4622,7.096284 L85.4622,3.23964 L88.823178,3.23964 Z" id="Path"></path>
                                <path d="M93.7152,15.245514 C93.7152,10.11798 96.735114,6.895908 101.44431,6.895908 C106.16931,6.895908 109.175166,10.117908 109.175166,15.245514 C109.175166,20.387124 106.185132,23.59512 101.44431,23.59512 C96.705216,23.59512 93.7152,20.387106 93.7152,15.245514 Z M105.766758,15.245514 C105.766758,11.728134 104.15484,9.652158 101.444292,9.652158 C98.733744,9.652158 97.121826,11.743956 97.121826,15.245514 C97.121826,18.776952 98.733744,20.837124 101.444292,20.837124 C104.15484,20.837124 105.766758,18.776952 105.766758,15.245514 L105.766758,15.245514 Z" id="Shape"></path>
                                <path d="M111.933126,7.096284 L115.123572,7.096284 L115.123572,9.870084 L115.200972,9.870084 C115.645889,8.08446313 117.282011,6.8555368 119.120886,6.925752 C119.506381,6.92440602 119.890813,6.96627134 120.266982,7.050564 L120.266982,10.179468 C119.780318,10.030758 119.272643,9.96248032 118.763982,9.977328 C117.780549,9.93743179 116.828804,10.3293625 116.158647,11.0502108 C115.48849,11.771059 115.166874,12.7488073 115.278246,13.726728 L115.278246,23.392944 L111.933126,23.392944 L111.933126,7.096284 Z" id="Path"></path>
                                <path d="M135.689976,18.606438 C135.239976,21.564828 132.358914,23.595102 128.672784,23.595102 C123.931962,23.595102 120.989394,20.418732 120.989394,15.322842 C120.989394,10.21113 123.947784,6.89589 128.532168,6.89589 C133.040952,6.89589 135.876312,9.99315 135.876312,14.934366 L135.876312,16.080462 L124.366158,16.080462 L124.366158,16.282602 C124.258693,17.4958589 124.677633,18.696815 125.516412,19.5799859 C126.355191,20.4631567 127.532965,20.9434199 128.750148,20.898612 C130.373464,21.0507113 131.903934,20.1185598 132.513624,18.60642 L135.689976,18.606438 Z M124.381948,13.742586 L132.529428,13.742586 C132.590134,12.6523755 132.19329,11.5862816 131.434506,10.8011368 C130.675722,10.015992 129.623797,9.58298474 128.532168,9.606438 C127.431903,9.59987201 126.374599,10.0330823 125.595262,10.8097798 C124.815925,11.5864774 124.379129,12.6423053 124.381948,13.742586 L124.381948,13.742586 Z" id="Shape"></path>
                            </g>
                        </g>
                    </g>
                    <g id="_Group_4" transform="translate(63.900000, 14.400000)" fill="#000000">
                        <g id="Group">
                            <path d="M4.187142,1.3158 C5.6072458,1.21389153 6.99820608,1.75418537 7.97717032,2.78796927 C8.95613457,3.82175317 9.41991457,5.24006062 9.240858,6.652512 C9.240858,10.083762 7.386372,12.056112 4.187142,12.056112 L0.307656,12.056112 L0.307656,1.3158 L4.187142,1.3158 Z M1.975806,10.5372 L4.000806,10.5372 C5.0156855,10.5978636 6.00387574,10.1980062 6.69099333,9.44865322 C7.37811091,8.69930023 7.6910033,7.68022995 7.542792,6.6744 C7.68022023,5.67274416 7.36282185,4.66208319 6.67740794,3.91884117 C5.99199402,3.17559914 5.0102922,2.77755534 4.000806,2.833578 L1.975806,2.833578 L1.975806,10.5372 Z" id="Shape"></path>
                            <path d="M11.125224,7.999812 C10.9862408,6.54700509 11.6828706,5.14100148 12.9229487,4.37147526 C14.1630267,3.60194904 15.7321473,3.60194904 16.9722253,4.37147526 C18.2123034,5.14100148 18.9089332,6.54700509 18.76995,7.999812 C18.9115775,9.45418007 18.2155836,10.8629107 16.974406,11.6340935 C15.7332284,12.4052764 14.1619456,12.4052764 12.920768,11.6340935 C11.6795904,10.8629107 10.9835965,9.45418007 11.125224,7.999812 Z M17.124642,7.999812 C17.124642,6.242886 16.33536,5.215446 14.950224,5.215446 C13.559796,5.215446 12.777624,6.242886 12.777624,7.99983 C12.777624,9.770832 13.55985,10.790352 14.950224,10.790352 C16.335396,10.790352 17.124642,9.763776 17.124642,7.999812 L17.124642,7.999812 Z" id="Shape"></path>
                            <polygon id="Path" points="28.931868 12.05595 27.272502 12.05595 25.597314 6.086412 25.470756 6.086412 23.802588 12.05595 22.159026 12.05595 19.924848 3.950676 21.547314 3.950676 22.999266 10.135476 23.118804 10.135476 24.785208 3.950676 26.31978 3.950676 27.986184 10.135476 28.112742 10.135476 29.557656 3.950676 31.157262 3.950676"></polygon>
                            <path d="M33.036354,3.950676 L34.5762,3.950676 L34.5762,5.23827 L34.695738,5.23827 C35.1114207,4.29026029 36.0827511,3.71035345 37.114488,3.79422 C37.9133582,3.73415719 38.6961946,4.04062182 39.2419634,4.62708373 C39.7877322,5.21354563 40.0372075,6.01636277 39.91995,6.80886 L39.91995,12.05586 L38.320344,12.05586 L38.320344,7.210548 C38.320344,5.908014 37.754334,5.260248 36.57132,5.260248 C36.0294585,5.23501041 35.5035963,5.44766862 35.1315983,5.84247021 C34.7596003,6.23727179 34.5785671,6.77484182 34.63596,7.314246 L34.63596,12.05595 L33.036354,12.05595 L33.036354,3.950676 Z" id="Path"></path>
                            <polygon id="Path" points="42.468786 0.7866 44.068392 0.7866 44.068392 12.055932 42.468786 12.055932"></polygon>
                            <path d="M46.292022,7.999812 C46.1531456,6.54691005 46.8498852,5.14087085 48.0900553,4.37133276 C49.3302254,3.60179468 50.8994266,3.60179468 52.1395967,4.37133276 C53.3797668,5.14087085 54.0765064,6.54691005 53.93763,7.999812 C54.0790776,9.45423214 53.3829562,10.8629229 52.141717,11.6340718 C50.9004778,12.4052207 49.3291742,12.4052207 48.087935,11.6340718 C46.8466958,10.8629229 46.1505744,9.45423214 46.292022,7.999812 L46.292022,7.999812 Z M52.29144,7.999812 C52.29144,6.242886 51.502158,5.215446 50.117022,5.215446 C48.726594,5.215446 47.944422,6.242886 47.944422,7.99983 C47.944422,9.770832 48.726648,10.790352 50.117022,10.790352 C51.502176,10.790352 52.29144,9.763776 52.29144,7.999812 L52.29144,7.999812 Z" id="Shape"></path>
                            <path d="M55.62162,9.763776 C55.62162,8.304786 56.707956,7.463682 58.63626,7.344144 L60.831774,7.217586 L60.831774,6.51798 C60.831774,5.661918 60.265764,5.178528 59.172408,5.178528 C58.279446,5.178528 57.660696,5.506362 57.483144,6.07941 L55.934514,6.07941 C56.09799,4.687218 57.407562,3.794256 59.246226,3.794256 C61.278264,3.794256 62.42436,4.805856 62.42436,6.51798 L62.42436,12.055968 L60.884514,12.055968 L60.884514,10.91691 L60.757956,10.91691 C60.2349635,11.7487374 59.3049126,12.2348938 58.323384,12.18951 C57.635309,12.2610813 56.9490681,12.0382392 56.4343125,11.5760744 C55.9195568,11.1139096 55.6243309,10.455558 55.62162,9.763776 L55.62162,9.763776 Z M60.831774,9.07119 L60.831774,8.393562 L58.852476,8.52012 C57.73626,8.59482 57.23001,8.974512 57.23001,9.689058 C57.23001,10.418544 57.862818,10.843056 58.73301,10.843056 C59.2481449,10.8952018 59.7623875,10.7360551 60.1580167,10.4020481 C60.5536459,10.068041 60.7967849,9.5877739 60.831774,9.07119 Z" id="Shape"></path>
                            <path d="M64.526688,7.999812 C64.526688,5.438682 65.843298,3.816216 67.89114,3.816216 C68.9251982,3.76857024 69.8936896,4.32265116 70.376688,5.238216 L70.496226,5.238216 L70.496226,0.7866 L72.095832,0.7866 L72.095832,12.055932 L70.563024,12.055932 L70.563024,10.775358 L70.436466,10.775358 C69.9169575,11.6833266 68.9365342,12.2280417 67.891158,12.18951 C65.82924,12.1896 64.526688,10.567098 64.526688,7.999812 Z M66.179088,7.999812 C66.179088,9.718956 66.989448,10.753434 68.344722,10.753434 C69.692922,10.753434 70.52616,9.704034 70.52616,8.00685 C70.52616,6.317586 69.684174,5.253228 68.344722,5.253228 C66.998178,5.253228 66.179034,6.294726 66.179034,7.999812 L66.179088,7.999812 Z" id="Shape"></path>
                            <path d="M78.714,7.999812 C78.5750168,6.54700509 79.2716466,5.14100148 80.5117247,4.37147526 C81.7518027,3.60194904 83.3209233,3.60194904 84.5610013,4.37147526 C85.8010794,5.14100148 86.4977092,6.54700509 86.358726,7.999812 C86.5003535,9.45418007 85.8043596,10.8629107 84.563182,11.6340935 C83.3220044,12.4052764 81.7507216,12.4052764 80.509544,11.6340935 C79.2683664,10.8629107 78.5723725,9.45418007 78.714,7.999812 L78.714,7.999812 Z M84.7134,7.999812 C84.7134,6.242886 83.924136,5.215446 82.539,5.215446 C81.148572,5.215446 80.3664,6.242886 80.3664,7.99983 C80.3664,9.770832 81.148626,10.790352 82.539,10.790352 C83.924154,10.790352 84.7134,9.763776 84.7134,7.999812 Z" id="Shape"></path>
                            <path d="M88.50501,3.950676 L90.044856,3.950676 L90.044856,5.23827 L90.164394,5.23827 C90.5800767,4.29026029 91.5514071,3.71035345 92.583144,3.79422 C93.3820142,3.73415719 94.1648506,4.04062182 94.7106194,4.62708373 C95.2563882,5.21354563 95.5058635,6.01636277 95.388606,6.80886 L95.388606,12.05586 L93.789,12.05586 L93.789,7.210548 C93.789,5.908014 93.22299,5.260248 92.039976,5.260248 C91.4981145,5.23501041 90.9722523,5.44766862 90.6002543,5.84247021 C90.2282563,6.23727179 90.0472231,6.77484182 90.104616,7.314246 L90.104616,12.05595 L88.50501,12.05595 L88.50501,3.950676 Z" id="Path"></path>
                            <path d="M104.427288,1.932714 L104.427288,3.987594 L106.18335,3.987594 L106.18335,5.334966 L104.427288,5.334966 L104.427288,9.50274 C104.427288,10.351764 104.7771,10.723536 105.573384,10.723536 C105.777244,10.7228836 105.980899,10.7105574 106.18335,10.686618 L106.18335,12.019032 C105.896087,12.0704233 105.605038,12.0977641 105.31323,12.10077 C103.534326,12.10077 102.825918,11.474982 102.825918,9.912294 L102.825918,5.334894 L101.539206,5.334894 L101.539206,3.987522 L102.825918,3.987522 L102.825918,1.932714 L104.427288,1.932714 Z" id="Path"></path>
                            <path d="M108.368298,0.7866 L109.953846,0.7866 L109.953846,5.25321 L110.080404,5.25321 C110.516054,4.29690341 111.504384,3.71625758 112.551804,3.801258 C113.346138,3.75803511 114.118377,4.07124668 114.658181,4.65558094 C115.197984,5.23991519 115.449129,6.03451015 115.343208,6.822936 L115.343208,12.05595 L113.742,12.05595 L113.742,7.21755 C113.742,5.922918 113.139,5.26725 112.008798,5.26725 C111.45229,5.2216086 110.90401,5.42392373 110.510536,5.8201083 C110.117062,6.21629288 109.918515,6.76594856 109.967976,7.32213 L109.967976,12.05595 L108.36837,12.05595 L108.368298,0.7866 Z" id="Path"></path>
                            <path d="M124.67025,9.867474 C124.221703,11.3963571 122.742178,12.3841855 121.158144,12.212388 C120.077359,12.2409184 119.038665,11.7929353 118.317651,10.9872993 C117.596637,10.1816633 117.266196,9.09982069 117.414,8.02881 C117.270121,6.95482286 117.599325,5.87124672 118.316324,5.05880452 C119.033322,4.24636232 120.067564,3.78499815 121.151106,3.794238 C123.40638,3.794238 124.766928,5.335038 124.766928,7.880238 L124.766928,8.4384 L119.043486,8.4384 L119.043486,8.52804 C118.992838,9.12949226 119.198251,9.72440595 119.609209,10.1664733 C120.020168,10.6085406 120.598538,10.8567431 121.202082,10.85004 C121.984671,10.9439904 122.746469,10.5557995 123.130404,9.86742 L124.67025,9.867474 Z M119.04345,7.255368 L123.137388,7.255368 C123.178163,6.70528879 122.984745,6.16356913 122.604798,5.76370637 C122.224852,5.36384361 121.693711,5.14302521 121.142268,5.155668 C120.583354,5.14864604 120.04529,5.36763822 119.650133,5.76296799 C119.254976,6.15829775 119.03622,6.69645672 119.043486,7.255368 L119.04345,7.255368 Z" id="Shape"></path>
                        </g>
                    </g>
                </g>
            </g>
        </g>
    </g>
</svg>