<?xml version="1.0" encoding="UTF-8"?>
<svg width="281px" height="73px" viewBox="0 0 281 73" version="1.1" xmlns="http://www.w3.org/2000/svg" xmlns:xlink="http://www.w3.org/1999/xlink">
    <!-- Generator: Sketch 64 (93537) - https://sketch.com -->
    <title>Download_on_the_Mac_App_Store_Badge_US-UK_RGB_wht_092917</title>
    <desc>Created with Sketch.</desc>
    <g id="Page-1" stroke="none" stroke-width="1" fill="none" fill-rule="evenodd">
        <g id="Landing-Page" transform="translate(-671.000000, -730.000000)" fill-rule="nonzero">
            <g id="Group-2" transform="translate(410.000000, 712.000000)">
                <g id="Download_on_the_Mac_App_Store_Badge_US-UK_RGB_wht_092917" transform="translate(261.000000, 18.900000)">
                    <g id="Group">
                        <path d="M263.828214,-0.000234 L17.162424,-0.000234 C16.502364,-0.000234 15.850224,-0.000234 15.19191,0.0036 C14.64084,0.0072 14.094162,0.017658 13.5378,0.02646 C12.3291246,0.0406832465 11.1232916,0.147017268 9.93078,0.344538 C8.73994335,0.54635873 7.58641053,0.926848333 6.509196,1.473138 C5.4332991,2.02404933 4.45022123,2.73990178 3.595626,3.594726 C2.7365445,4.44714659 2.02043373,5.43242948 1.47483,6.512688 C0.927720435,7.59079642 0.548352897,8.74608893 0.34983,9.938664 C0.149419694,11.1297328 0.0415770852,12.334537 0.02727,13.542264 C0.010566,14.094144 0.008802,14.64786 0,15.199812 L0,56.80548 C0.008802,57.36438 0.010566,57.90582 0.027252,58.4649 C0.0415634725,59.6725671 0.149406083,60.8773111 0.349812,62.06832 C0.547786715,63.2615923 0.927176684,64.417548 1.474812,65.49606 C2.02017345,66.5728265 2.73639106,67.5541205 3.595626,68.4018 C4.44698088,69.2604251 5.43069419,69.9767645 6.509196,70.52346 C7.58640235,71.0712118 8.7398108,71.4539661 9.93078,71.6589 C11.1234944,71.8548385 12.3292033,71.9612157 13.5378,71.97714 C14.094162,71.98938 14.64084,71.9964 15.19191,71.9964 C15.850206,72 16.5024,72 17.162424,72 L263.828214,72 C264.475134,72 265.132494,72 265.779414,71.9964 C266.327874,71.9964 266.890374,71.98938 267.438834,71.97714 C268.645146,71.9620627 269.848585,71.8556786 271.038834,71.6589 C272.233645,71.4525235 273.391189,71.0698705 274.473594,70.52346 C275.551123,69.9764483 276.533929,69.2601283 277.384554,68.4018 C278.241566,67.5507993 278.959306,66.5702231 279.511434,65.49606 C280.05496,64.4167634 280.430738,63.2609001 280.625814,62.06832 C280.826541,60.8771477 280.93821,59.6726717 280.959894,58.4649 C280.966914,57.90582 280.966914,57.36438 280.966914,56.80548 C280.980954,56.15154 280.980954,55.5012 280.980954,54.83664 L280.980954,17.165034 C280.980954,16.505856 280.980954,15.851952 280.966914,15.199812 C280.966914,14.64786 280.966914,14.094144 280.959894,13.542192 C280.938214,12.3343604 280.826545,11.1298242 280.625814,9.938592 C280.430195,8.74670688 280.054438,7.5915059 279.511434,6.512616 C278.400338,4.34735294 276.63846,2.58484571 274.473594,1.472976 C273.391186,0.928021284 272.233518,0.547632738 271.038834,0.344376 C269.848791,0.14598501 268.645226,0.0396139768 267.438834,0.026208 C266.890374,0.017424 266.327874,0.006876 265.779414,0.003366 C265.132494,-0.000234 264.475134,-0.000234 263.828214,-0.000234 L263.828214,-0.000234 Z" id="Path" fill="#000000"></path>
                        <path d="M15.200694,70.425 C14.65227,70.425 14.117004,70.41798 13.572972,70.40574 C12.4457792,70.3910533 11.3212209,70.2929251 10.20852,70.11216 C9.17098254,69.9334707 8.16588764,69.6010761 7.226388,69.12594 C6.29550307,68.6547408 5.44646118,68.0368911 4.711788,67.29606 C3.96648059,66.5639555 3.34597812,65.7148391 2.87487,64.78236 C2.39857014,63.8438207 2.06894263,62.8378194 1.89747,61.7994 C1.71229302,60.6836069 1.61210504,59.5553639 1.59777,58.4244 C1.586358,58.04478 1.571418,56.78082 1.571418,56.78082 L1.571418,15.199812 C1.571418,15.199812 1.58733,13.955274 1.59786,13.58964 C1.611586,12.4604677 1.71119138,11.3339755 1.895814,10.219914 C2.06760425,9.17865028 2.39748689,8.16974818 2.874042,7.228134 C3.34341895,6.29629909 3.96047649,5.44654873 4.701294,4.711824 C5.44127909,3.97011855 6.2930369,3.34908741 7.225506,2.871378 C8.1628464,2.39776849 9.1660418,2.06771858 10.201482,1.892286 C11.3178372,1.70970505 12.4462995,1.61099295 13.5774,1.596978 L15.201576,1.575 L265.770576,1.575 L267.414156,1.59786 C268.534968,1.61117856 269.653179,1.70901001 270.759276,1.890522 C271.805198,2.06815512 272.818849,2.40050796 273.766896,2.876652 C275.634969,3.83937489 277.154985,5.36249331 278.113896,7.232526 C278.582845,8.16763961 278.90764,9.16831216 279.077256,10.200582 C279.264077,11.3237845 279.368634,12.459129 279.390096,13.59756 C279.395316,14.10732 279.395316,14.65488 279.395316,15.199812 C279.409536,15.874812 279.409536,16.517286 279.409536,17.165034 L279.409536,54.83664 C279.409536,55.49058 279.409536,56.12868 279.395316,56.772 C279.395316,57.35736 279.395316,57.89358 279.388296,58.44546 C279.367299,59.5635762 279.264484,60.6786556 279.080676,61.78176 C278.912718,62.8276701 278.584885,63.8415236 278.108676,64.78776 C277.634238,65.710118 277.017298,66.5518791 276.280596,67.28202 C275.545262,68.0268323 274.694722,68.6482969 273.761676,69.12252 C272.816255,69.6013086 271.804097,69.9349325 270.759276,70.11216 C269.646659,70.2938897 268.521993,70.3920243 267.394716,70.40574 C266.867496,70.41798 266.315436,70.425 265.779396,70.425 L263.828196,70.4286 L15.200694,70.425 Z" id="Path" fill="#FFFFFF"></path>
                    </g>
                    <g id="Group" transform="translate(63.000000, 31.500000)" fill="#000000">
                        <polygon id="Path" points="20.06811 23.390532 20.06811 6.93828 19.95912 6.93828 13.221414 23.22 10.649736 23.22 3.894462 6.93828 3.7872 6.93828 3.7872 23.390532 0.626688 23.390532 0.626688 1.037304 4.63977 1.037304 11.87316 18.681354 11.996208 18.681354 19.21554 1.037304 23.24268 1.037304 23.24268 23.390532"></polygon>
                        <path d="M25.9128,18.7587 C25.9128,15.9093 28.096002,14.188392 31.970214,13.9563 L36.43155,13.707576 L36.43155,12.468312 C36.43155,10.656 35.237988,9.632952 33.20775,9.632952 C31.6518963,9.42603278 30.1851554,10.4091287 29.785284,11.92689 L26.65638,11.92689 C26.749548,8.982558 29.49174,6.892524 33.300918,6.892524 C37.189206,6.892524 39.760884,9.014202 39.760884,12.220524 L39.760884,23.39055 L36.554634,23.39055 L36.554634,20.709864 L36.477234,20.709864 C35.431387,22.5611791 33.4600611,23.6957367 31.333914,23.67 C29.9475797,23.8056485 28.5684055,23.3497062 27.5360939,22.4144756 C26.5037824,21.4792451 25.914285,20.1516541 25.9128,18.7587 L25.9128,18.7587 Z M36.431586,17.287416 L36.431586,16.03233 L32.418468,16.28019 C30.419838,16.405002 29.289564,17.271594 29.289564,18.66555 C29.289564,20.09115 30.467304,21.021012 32.263776,21.021012 C33.3149106,21.0923223 34.3502914,20.7360789 35.1350178,20.0331041 C35.9197442,19.3301294 36.3872917,18.3400171 36.431586,17.287398 L36.431586,17.287416 Z" id="Shape"></path>
                        <path d="M53.807562,12.700386 C53.5043163,10.8519817 51.8337641,9.54535454 49.96674,9.696276 C47.395062,9.696276 45.69174,11.849598 45.69174,15.243048 C45.69174,18.712962 47.410884,20.803014 49.99662,20.803014 C51.8407462,20.9876941 53.5102014,19.705554 53.807562,17.876214 L57.029562,17.876214 C56.6126976,21.3804204 53.4808783,23.9151986 49.96674,23.5926 C45.31914,23.5926 42.28335,20.41623 42.28335,15.242994 C42.28335,10.176102 45.319086,6.892506 49.93515,6.892506 C53.4753589,6.59229641 56.6095445,9.16889599 56.99979,12.700314 L53.807562,12.700386 Z" id="Path"></path>
                        <path d="M78.76674,17.348922 L70.24662,17.348922 L68.200524,23.390532 L64.59174,23.390532 L72.66186,1.037304 L76.41126,1.037304 L84.48138,23.390532 L80.811,23.390532 L78.76674,17.348922 Z M71.129052,14.561028 L77.882652,14.561028 L74.553354,4.755078 L74.460186,4.755078 L71.129052,14.561028 Z" id="Shape"></path>
                        <path d="M101.910096,15.243066 C101.910096,20.30733 99.199548,23.561028 95.10912,23.561028 C92.9948135,23.6716283 91.0032523,22.5642072 89.981586,20.709828 L89.904186,20.709828 L89.904186,28.781694 L86.55912,28.781694 L86.55912,7.092972 L89.797014,7.092972 L89.797014,9.80352 L89.858538,9.80352 C90.9255901,7.96076332 92.9193007,6.85381791 95.047596,6.922458 C99.183726,6.922458 101.910096,10.191996 101.910096,15.243066 Z M98.471808,15.243066 C98.471808,11.942766 96.766722,9.77364 94.165164,9.77364 C91.609308,9.77364 89.890164,11.988486 89.890164,15.243066 C89.890164,18.526662 91.609308,20.725686 94.165164,20.725686 C96.76674,20.725686 98.471808,18.5724 98.471808,15.243066 Z" id="Shape"></path>
                        <path d="M119.846808,15.243066 C119.846808,20.30733 117.13626,23.561028 113.045832,23.561028 C110.931525,23.6716283 108.939964,22.5642072 107.918298,20.709828 L107.840898,20.709828 L107.840898,28.781694 L104.495778,28.781694 L104.495778,7.092972 L107.733672,7.092972 L107.733672,9.80352 L107.795196,9.80352 C108.862251,7.96076625 110.85596,6.85382191 112.984254,6.922458 C117.120438,6.922458 119.846808,10.191996 119.846808,15.243066 Z M116.408538,15.243066 C116.408538,11.942766 114.703434,9.77364 112.101876,9.77364 C109.54602,9.77364 107.826876,11.988486 107.826876,15.243066 C107.826876,18.526662 109.54602,20.725686 112.101876,20.725686 C114.703452,20.725686 116.408538,18.5724 116.408538,15.243066 L116.408538,15.243066 Z" id="Shape"></path>
                        <path d="M131.7015,17.162604 C131.94936,19.379214 134.1027,20.834604 137.04525,20.834604 C139.864788,20.834604 141.893298,19.379142 141.893298,17.380494 C141.893298,15.645528 140.669856,14.606694 137.77299,13.894758 L134.876124,13.196034 C130.771638,12.20463 128.866158,10.285092 128.866158,7.170246 C128.866158,3.313602 132.2271,0.664578 136.999548,0.664578 C141.722748,0.664578 144.960678,3.313602 145.069668,7.170246 L141.692868,7.170246 C141.490728,4.939578 139.646772,3.593106 136.952046,3.593106 C134.25732,3.593106 132.413364,4.955418 132.413364,6.938226 C132.413364,8.5185 133.591122,9.44838 136.472166,10.160226 L138.934854,10.764918 C143.520984,11.84949 145.426464,13.691718 145.426464,16.962084 C145.426464,21.143916 142.095402,23.76306 136.797354,23.76306 C131.840316,23.76306 128.49345,21.20544 128.277234,17.16246 L131.7015,17.162604 Z" id="Path"></path>
                        <path d="M152.645832,3.2364 L152.645832,7.093044 L155.744856,7.093044 L155.744856,9.742068 L152.645832,9.742068 L152.645832,18.727128 C152.645832,20.12283 153.266346,20.773224 154.62864,20.773224 C154.996545,20.7668087 155.363854,20.7409727 155.729034,20.695824 L155.729034,23.329026 C155.116545,23.4434692 154.494001,23.4953001 153.87102,23.483718 C150.57162,23.483718 149.28489,22.244454 149.28489,19.083906 L149.28489,9.741996 L146.915352,9.741996 L146.915352,7.092972 L149.28489,7.092972 L149.28489,3.2364 L152.645832,3.2364 Z" id="Path"></path>
                        <path d="M157.5378,15.243066 C157.5378,10.11465 160.557714,6.892578 165.26691,6.892578 C169.99191,6.892578 172.997766,10.114578 172.997766,15.243066 C172.997766,20.384676 170.007732,23.592672 165.26691,23.592672 C160.52787,23.592672 157.5378,20.384676 157.5378,15.243066 Z M169.589394,15.243066 C169.589394,11.724804 167.97744,9.648828 165.266892,9.648828 C162.556344,9.648828 160.944426,11.740626 160.944426,15.243066 C160.944426,18.774504 162.556344,20.834676 165.266892,20.834676 C167.97744,20.834676 169.589394,18.774504 169.589394,15.243066 L169.589394,15.243066 Z" id="Shape"></path>
                        <path d="M175.75578,7.092972 L178.946226,7.092972 L178.946226,9.866772 L179.023626,9.866772 C179.468543,8.08115113 181.104665,6.8522248 182.94354,6.92244 C183.329035,6.92109402 183.713467,6.96295934 184.089636,7.047252 L184.089636,10.176156 C183.602972,10.027446 183.095297,9.95916832 182.586636,9.974016 C181.603203,9.93411979 180.651458,10.3260505 179.981301,11.0468988 C179.311144,11.767747 178.989528,12.7454953 179.1009,13.723416 L179.1009,23.390514 L175.75578,23.390514 L175.75578,7.092972 Z" id="Path"></path>
                        <path d="M199.51263,18.604008 C199.06263,21.562398 196.181568,23.592672 192.495438,23.592672 C187.754616,23.592672 184.812048,20.416302 184.812048,15.320412 C184.812048,10.207818 187.770438,6.892578 192.354822,6.892578 C196.863606,6.892578 199.698966,9.989838 199.698966,14.931936 L199.698966,16.078032 L188.188812,16.078032 L188.188812,16.280172 C188.081347,17.4934289 188.500287,18.694385 189.339066,19.5775559 C190.177845,20.4607267 191.355619,20.9409899 192.572802,20.896182 C194.196118,21.0482813 195.726588,20.1161298 196.336278,18.60399 L199.51263,18.604008 Z M188.204616,13.739256 L196.352082,13.739256 C196.412788,12.6490635 196.015944,11.5829696 195.25716,10.7978248 C194.498376,10.01268 193.446451,9.57967274 192.354822,9.603126 C191.254563,9.59656486 190.197267,10.0297748 189.417934,10.8064679 C188.638601,11.583161 188.201806,12.6389815 188.204616,13.739256 L188.204616,13.739256 Z" id="Shape"></path>
                    </g>
                    <g id="Group" transform="translate(17.100000, 13.500000)" fill="#000000">
                        <g id="_Group_">
                            <g id="_Group_2">
                                <g id="_Group_3">
                                    <path d="M27.894078,22.30083 C27.9349924,19.1253537 29.599758,16.1921806 32.305122,14.528952 C30.5906767,12.0804228 27.8220412,10.5836589 24.83442,10.490184 C21.691188,10.160244 18.643986,12.37104 17.04222,12.37104 C15.409494,12.37104 12.943386,10.522944 10.287774,10.577574 C6.79370243,10.6904611 3.61524595,12.6288851 1.915308,15.683634 C-1.70469,21.951234 0.995508,31.162536 4.463226,36.228834 C6.19821,38.709648 8.225892,41.480766 10.87911,41.382504 C13.47543,41.27481 14.445108,39.726918 17.57907,39.726918 C20.683962,39.726918 21.5937,41.382504 24.300756,41.320026 C27.086742,41.27481 28.842012,38.828196 30.516156,36.323892 C31.7627403,34.5562262 32.7219844,32.6025698 33.358356,30.53529 C30.0494576,29.135789 27.8979288,25.8935165 27.894078,22.30083 Z" id="_Path_"></path>
                                    <path d="M22.780998,7.158258 C24.3000377,5.33472338 25.0484143,2.9908712 24.867198,0.624456 C22.5464643,0.868202872 20.4027561,1.97736165 18.863208,3.730932 C17.342973,5.46106697 16.5728262,7.72454778 16.722396,10.022832 C19.074237,10.0470408 21.307259,8.99124335 22.780998,7.158258 Z" id="_Path_2"></path>
                                </g>
                            </g>
                        </g>
                        <g id="_Group_4" transform="translate(46.800000, 0.900000)">
                            <g id="Group">
                                <path d="M4.187142,1.3158 C5.6072458,1.21389153 6.99820608,1.75418537 7.97717032,2.78796927 C8.95613457,3.82175317 9.41991457,5.24006062 9.240858,6.652512 C9.240858,10.083762 7.386372,12.056112 4.187142,12.056112 L0.307656,12.056112 L0.307656,1.3158 L4.187142,1.3158 Z M1.975806,10.5372 L4.000806,10.5372 C5.0156855,10.5978636 6.00387574,10.1980062 6.69099333,9.44865322 C7.37811091,8.69930023 7.6910033,7.68022995 7.542792,6.6744 C7.68022023,5.67274416 7.36282185,4.66208319 6.67740794,3.91884117 C5.99199402,3.17559914 5.0102922,2.77755534 4.000806,2.833578 L1.975806,2.833578 L1.975806,10.5372 Z" id="Shape"></path>
                                <path d="M11.125224,7.999812 C10.9862408,6.54700509 11.6828706,5.14100148 12.9229487,4.37147526 C14.1630267,3.60194904 15.7321473,3.60194904 16.9722253,4.37147526 C18.2123034,5.14100148 18.9089332,6.54700509 18.76995,7.999812 C18.9115775,9.45418007 18.2155836,10.8629107 16.974406,11.6340935 C15.7332284,12.4052764 14.1619456,12.4052764 12.920768,11.6340935 C11.6795904,10.8629107 10.9835965,9.45418007 11.125224,7.999812 Z M17.124642,7.999812 C17.124642,6.242886 16.33536,5.215446 14.950224,5.215446 C13.559796,5.215446 12.777624,6.242886 12.777624,7.99983 C12.777624,9.770832 13.55985,10.790352 14.950224,10.790352 C16.335378,10.790352 17.124642,9.763776 17.124642,7.999812 L17.124642,7.999812 Z" id="Shape"></path>
                                <polygon id="Path" points="28.931868 12.05595 27.272502 12.05595 25.597314 6.086412 25.470756 6.086412 23.802588 12.05595 22.159026 12.05595 19.924848 3.950676 21.547314 3.950676 22.999266 10.135476 23.118804 10.135476 24.785208 3.950676 26.31978 3.950676 27.986184 10.135476 28.112742 10.135476 29.557656 3.950676 31.157262 3.950676"></polygon>
                                <path d="M33.036354,3.950676 L34.5762,3.950676 L34.5762,5.23827 L34.695738,5.23827 C35.1114207,4.29026029 36.0827511,3.71035345 37.114488,3.79422 C37.9133582,3.73415719 38.6961946,4.04062182 39.2419634,4.62708373 C39.7877322,5.21354563 40.0372075,6.01636277 39.91995,6.80886 L39.91995,12.05586 L38.320344,12.05586 L38.320344,7.210548 C38.320344,5.908014 37.754334,5.260248 36.57132,5.260248 C36.0294585,5.23501041 35.5035963,5.44766862 35.1315983,5.84247021 C34.7596003,6.23727179 34.5785671,6.77484182 34.63596,7.314246 L34.63596,12.05595 L33.036354,12.05595 L33.036354,3.950676 Z" id="Path"></path>
                                <polygon id="Path" points="42.468786 0.7866 44.068392 0.7866 44.068392 12.055932 42.468786 12.055932"></polygon>
                                <path d="M46.292022,7.999812 C46.1530388,6.54700509 46.8496686,5.14100148 48.0897467,4.37147526 C49.3298247,3.60194904 50.8989453,3.60194904 52.1390233,4.37147526 C53.3791014,5.14100148 54.0757312,6.54700509 53.936748,7.999812 C54.0783755,9.45418007 53.3823816,10.8629107 52.141204,11.6340935 C50.9000264,12.4052764 49.3287436,12.4052764 48.087566,11.6340935 C46.8463884,10.8629107 46.1503945,9.45418007 46.292022,7.999812 Z M52.29144,7.999812 C52.29144,6.242886 51.502158,5.215446 50.117022,5.215446 C48.726594,5.215446 47.944422,6.242886 47.944422,7.99983 C47.944422,9.770832 48.726648,10.790352 50.117022,10.790352 C51.502176,10.790352 52.29144,9.763776 52.29144,7.999812 L52.29144,7.999812 Z" id="Shape"></path>
                                <path d="M55.620738,9.763776 C55.620738,8.304786 56.707074,7.463682 58.635378,7.344144 L60.830892,7.217586 L60.830892,6.51798 C60.830892,5.661918 60.264882,5.178528 59.171526,5.178528 C58.278564,5.178528 57.659814,5.506362 57.482262,6.07941 L55.933632,6.07941 C56.097108,4.687218 57.40668,3.794256 59.245344,3.794256 C61.277382,3.794256 62.423478,4.805856 62.423478,6.51798 L62.423478,12.055968 L60.883632,12.055968 L60.883632,10.91691 L60.757074,10.91691 C60.2340815,11.7487374 59.3040306,12.2348938 58.322502,12.18951 C57.634427,12.2610813 56.9481861,12.0382392 56.4334305,11.5760744 C55.9186748,11.1139096 55.6234489,10.455558 55.620738,9.763776 L55.620738,9.763776 Z M60.830892,9.07119 L60.830892,8.393562 L58.851594,8.52012 C57.735378,8.59482 57.229128,8.974512 57.229128,9.689058 C57.229128,10.418544 57.861936,10.843056 58.732128,10.843056 C59.2472629,10.8952018 59.7615055,10.7360551 60.1571347,10.4020481 C60.5527639,10.068041 60.7959029,9.5877739 60.830892,9.07119 L60.830892,9.07119 Z" id="Shape"></path>
                                <path d="M64.525824,7.999812 C64.525824,5.438682 65.842434,3.816216 67.890276,3.816216 C68.9243342,3.76857024 69.8928256,4.32265116 70.375824,5.238216 L70.495362,5.238216 L70.495362,0.7866 L72.094968,0.7866 L72.094968,12.055932 L70.56216,12.055932 L70.56216,10.775358 L70.435602,10.775358 C69.9160935,11.6833266 68.9356702,12.2280417 67.890294,12.18951 C65.828358,12.1896 64.525824,10.567098 64.525824,7.999812 Z M66.178224,7.999812 C66.178224,9.718956 66.988584,10.753434 68.343858,10.753434 C69.692058,10.753434 70.525296,9.704034 70.525296,8.00685 C70.525296,6.317586 69.68331,5.253228 68.343858,5.253228 C66.997296,5.253228 66.178152,6.294726 66.178152,7.999812 L66.178224,7.999812 Z" id="Shape"></path>
                                <path d="M78.713118,7.999812 C78.5742416,6.54691005 79.2709812,5.14087085 80.5111513,4.37133276 C81.7513214,3.60179468 83.3205226,3.60179468 84.5606927,4.37133276 C85.8008628,5.14087085 86.4976024,6.54691005 86.358726,7.999812 C86.5001736,9.45423214 85.8040522,10.8629229 84.562813,11.6340718 C83.3215738,12.4052207 81.7502702,12.4052207 80.509031,11.6340718 C79.2677918,10.8629229 78.5716704,9.45423214 78.713118,7.999812 L78.713118,7.999812 Z M84.712536,7.999812 C84.712536,6.242886 83.923254,5.215446 82.538118,5.215446 C81.14769,5.215446 80.365518,6.242886 80.365518,7.99983 C80.365518,9.770832 81.147744,10.790352 82.538118,10.790352 C83.9232,10.790352 84.712536,9.763776 84.712536,7.999812 L84.712536,7.999812 Z" id="Shape"></path>
                                <path d="M88.50501,3.950676 L90.044856,3.950676 L90.044856,5.23827 L90.164394,5.23827 C90.5800767,4.29026029 91.5514071,3.71035345 92.583144,3.79422 C93.3820142,3.73415719 94.1648506,4.04062182 94.7106194,4.62708373 C95.2563882,5.21354563 95.5058635,6.01636277 95.388606,6.80886 L95.388606,12.05586 L93.789,12.05586 L93.789,7.210548 C93.789,5.908014 93.22299,5.260248 92.039976,5.260248 C91.4981145,5.23501041 90.9722523,5.44766862 90.6002543,5.84247021 C90.2282563,6.23727179 90.0472231,6.77484182 90.104616,7.314246 L90.104616,12.05595 L88.50501,12.05595 L88.50501,3.950676 Z" id="Path"></path>
                                <path d="M104.427288,1.932714 L104.427288,3.987594 L106.18335,3.987594 L106.18335,5.334966 L104.427288,5.334966 L104.427288,9.50274 C104.427288,10.351764 104.7771,10.723536 105.573384,10.723536 C105.777244,10.7228836 105.980899,10.7105574 106.18335,10.686618 L106.18335,12.019032 C105.896087,12.0704233 105.605038,12.0977641 105.31323,12.10077 C103.534326,12.10077 102.825918,11.474982 102.825918,9.912294 L102.825918,5.334894 L101.539206,5.334894 L101.539206,3.987522 L102.825918,3.987522 L102.825918,1.932714 L104.427288,1.932714 Z" id="Path"></path>
                                <path d="M108.368298,0.7866 L109.953846,0.7866 L109.953846,5.25321 L110.080404,5.25321 C110.516054,4.29690341 111.504384,3.71625758 112.551804,3.801258 C113.346138,3.75803511 114.118377,4.07124668 114.658181,4.65558094 C115.197984,5.23991519 115.449129,6.03451015 115.343208,6.822936 L115.343208,12.05595 L113.742,12.05595 L113.742,7.21755 C113.742,5.922918 113.139,5.26725 112.008798,5.26725 C111.45229,5.2216086 110.90401,5.42392373 110.510536,5.8201083 C110.117062,6.21629288 109.918515,6.76594856 109.967976,7.32213 L109.967976,12.05595 L108.36837,12.05595 L108.368298,0.7866 Z" id="Path"></path>
                                <path d="M124.67025,9.867474 C124.221703,11.3963571 122.742178,12.3841855 121.158144,12.212388 C120.077359,12.2409184 119.038665,11.7929353 118.317651,10.9872993 C117.596637,10.1816633 117.266196,9.09982069 117.414,8.02881 C117.270121,6.95482286 117.599325,5.87124672 118.316324,5.05880452 C119.033322,4.24636232 120.067564,3.78499815 121.151106,3.794238 C123.40638,3.794238 124.766928,5.335038 124.766928,7.880238 L124.766928,8.4384 L119.043486,8.4384 L119.043486,8.52804 C118.992838,9.12949226 119.198251,9.72440595 119.609209,10.1664733 C120.020168,10.6085406 120.598538,10.8567431 121.202082,10.85004 C121.984671,10.9439904 122.746469,10.5557995 123.130404,9.86742 L124.67025,9.867474 Z M119.04345,7.255368 L123.137388,7.255368 C123.178163,6.70528879 122.984745,6.16356913 122.604798,5.76370637 C122.224852,5.36384361 121.693711,5.14302521 121.142268,5.155668 C120.583354,5.14864604 120.04529,5.36763822 119.650133,5.76296799 C119.254976,6.15829775 119.03622,6.69645672 119.043486,7.255368 L119.04345,7.255368 Z" id="Shape"></path>
                            </g>
                        </g>
                    </g>
                </g>
            </g>
        </g>
    </g>
</svg>