<?xml version="1.0" encoding="UTF-8"?>
<svg width="201px" height="40px" viewBox="0 0 201 40" version="1.1" xmlns="http://www.w3.org/2000/svg" xmlns:xlink="http://www.w3.org/1999/xlink">
    <!-- Generator: Sketch 64 (93537) - https://sketch.com -->
    <title>header_logo</title>
    <desc>Created with Sketch.</desc>
    <g id="Page-1" stroke="none" stroke-width="1" fill="none" fill-rule="evenodd">
        <g id="Landing-Page" transform="translate(-410.000000, -39.000000)" fill="#FFFFFF">
            <g id="header_logo" transform="translate(410.000000, 39.000000)">
                <g id="logo">
                    <path d="M35.7842592,19.0222973 C35.9980046,14.7641193 33.2050654,10.8934511 28.7257303,10.8934511 C24.7999407,10.8934511 21.6063661,14.1197461 21.6063661,18.0845238 C21.6063661,22.0498552 24.7999407,25.2755966 28.7257303,25.2755966 C28.7887577,25.2755966 28.8512371,25.2744894 28.9142646,25.2728286 C28.0105054,25.8408071 26.9932968,26.2399421 25.9048398,26.4265004 C25.9037436,26.4265004 25.9031956,26.4270539 25.9020994,26.4270539 C25.552434,26.4862876 25.198384,26.5239314 24.8437859,26.5383246 C24.8426898,26.5383246 24.8410456,26.5383246 24.8399495,26.5383246 C24.2485874,26.5626823 23.6544849,26.5239314 23.072988,26.4226253 C23.0658631,26.4215181 23.0587383,26.4204109 23.0516134,26.4193037 C20.627522,26.0716522 18.3968975,24.8476751 16.7713367,22.9732354 C15.1304301,21.0810809 14.227219,18.6558238 14.227219,16.1442074 C14.227219,10.4212428 18.8369937,5.76559066 24.5023415,5.76559066 C26.9258848,5.76559066 29.280372,6.63804105 31.1328317,8.22240211 C31.4008355,8.45214 31.79325,8.45656869 32.0667344,8.23347382 C32.3402189,8.01037895 32.4185922,7.62231567 32.2530765,7.30898641 C32.1993662,7.20823389 32.1434635,7.12021383 32.0826283,7.04049755 C30.4461063,4.8992297 28.318518,3.12664964 25.9311469,1.91540506 C23.4264899,0.644373262 20.7256256,0 17.9041871,0 C13.121772,0 8.62544679,1.88108277 5.24388581,5.29670393 C1.86232483,8.71232508 0,13.2539387 0,18.0845238 C0,22.8946263 1.84697901,27.417418 5.20113674,30.8280569 C5.21538643,30.8435573 5.23018419,30.8585041 5.24388581,30.8723437 C8.62544679,34.2879649 13.121772,36.1690476 17.9041871,36.1690476 C22.6866021,36.1690476 27.1829273,34.2879649 30.5639402,30.8723437 C30.6346406,30.8009312 30.7272636,30.7073753 30.8302998,30.5972118 C33.8287634,27.440115 35.5655813,23.372924 35.7842592,19.0222973" id="Fill-11"></path>
                    <polygon id="Fill-12" points="32.8317392 35.2475432 38.7596921 35.2475432 38.7596921 29.2577646 32.8317392 29.2577646"></polygon>
                    <polygon id="Fill-13" points="37.1637048 39.6246891 43.0916577 39.6246891 43.0916577 33.6349105 37.1637048 33.6349105"></polygon>
                </g>
                <g id="quranpro" transform="translate(53.217000, 7.290000)">
                    <path d="M5.48458687,12.2430847 C5.48458687,13.2778277 5.6763267,14.2452368 6.06049608,15.1432508 C6.44397575,16.0433261 6.9688463,16.8245364 7.63510773,17.4868819 C8.29998974,18.1512886 9.07384619,18.6748438 9.95391822,19.0561734 C10.83468,19.4381901 11.7830335,19.6291984 12.798289,19.6291984 C13.8142342,19.6291984 14.761898,19.4381901 15.64197,19.0561734 C16.5227318,18.6748438 17.2952088,18.1512886 17.9621599,17.4868819 C18.627042,16.8245364 19.1519125,16.0433261 19.5353922,15.1432508 C19.9195615,14.2452368 20.1113014,13.2778277 20.1113014,12.2430847 C20.1113014,11.2097158 19.9195615,10.2423067 19.5353922,9.34223146 C19.1519125,8.44284329 18.627042,7.66094585 17.9621599,6.9986004 C17.2952088,6.33488079 16.5227318,5.81269972 15.64197,5.42930889 C14.761898,5.04729222 13.8142342,4.85628388 12.798289,4.85628388 C11.7830335,4.85628388 10.83468,5.04729222 9.95391822,5.42930889 C9.07384619,5.81269972 8.29998974,6.33488079 7.63510773,6.9986004 C6.9688463,7.66094585 6.44397575,8.44284329 6.06049608,9.34223146 C5.6763267,10.2423067 5.48458687,11.2097158 5.48458687,12.2430847 Z M27.5263911,24.4861694 L13.0017539,24.4861694 C11.1271177,24.4861694 9.39525181,24.2113372 7.80408708,23.6602988 C6.21223264,23.1092603 4.84177563,22.3053763 3.69064692,21.2486468 C2.5388285,20.1926043 1.63599598,18.9105124 0.981459648,17.4030581 C0.3262336,15.896978 0,14.1772159 0,12.2430847 C0,10.4436213 0.332441005,8.7918801 0.998012727,7.28442582 C1.66427416,5.77834571 2.57262437,4.4852605 3.72444279,3.40585727 C4.8755715,2.32645405 6.22947543,1.48890311 7.78684429,0.892517369 C9.34421314,0.29750579 11.0146947,0 12.798289,0 C14.5811935,0 16.2516751,0.303002432 17.809044,0.909694378 C19.3664128,1.51776048 20.7210065,2.36080807 21.8721352,3.43952421 C23.0232639,4.51892743 23.9316141,5.80582892 24.5978755,7.30160283 C25.2634472,8.79668966 25.596578,10.4436213 25.596578,12.2430847 C25.596578,13.0971255 25.500708,13.9298669 25.3082785,14.7385605 C25.1172284,15.5479411 24.8289289,16.3133486 24.4454493,17.0327218 C24.0612799,17.7520949 23.5646875,18.3979504 22.9556721,18.9716625 C22.3459671,19.5453746 21.6348744,20.0119021 20.8223941,20.3719322 L20.8223941,20.438579 L27.5263911,20.438579 L27.5263911,24.4861694 L27.5263911,24.4861694 Z" id="Fill-14"></path>
                    <path d="M45.303852,24.9402015 L40.452077,24.9402015 L40.452077,22.6890475 L40.3841192,22.6890475 C40.2042713,23.0074628 39.9736266,23.325878 39.6935581,23.643598 C39.4121167,23.9634037 39.0695819,24.2470574 38.6659538,24.4966449 C38.2616392,24.7469277 37.8003499,24.9520204 37.2841452,25.1105328 C36.767254,25.2697404 36.2050577,25.3503871 35.598929,25.3503871 C34.3187139,25.3503871 33.2794401,25.1508562 32.481794,24.7524895 C31.6841479,24.3548181 31.0663497,23.8028056 30.6290859,23.0971474 C30.1904492,22.3928796 29.8980247,21.5613848 29.7524989,20.6054439 C29.6056002,19.649503 29.5335238,18.6156963 29.5335238,17.5005477 L29.5335238,8.35410484 L34.5884858,8.35410484 L34.5884858,16.4764743 C34.5884858,16.9547924 34.6049604,17.4491007 34.6385961,17.9614851 C34.6722318,18.4731742 34.7731388,18.9459304 34.9413172,19.3776681 C35.110182,19.810101 35.3682844,20.1618873 35.7169971,20.4351126 C36.0650234,20.7090331 36.5647535,20.8446029 37.2161874,20.8446029 C37.8683077,20.8446029 38.3954955,20.7257186 38.8004965,20.4872548 C39.2048111,20.2474006 39.5137102,19.9296806 39.7271938,19.5320091 C39.9406774,19.1329472 40.0807116,18.6838288 40.1486694,18.1825681 C40.2159408,17.6820027 40.24889,17.1584947 40.24889,16.6127393 L40.24889,8.35410484 L45.303852,8.35410484 L45.303852,24.9402015" id="Fill-15"></path>
                    <path d="M48.7446509,7.89939418 L53.9007083,7.89939418 L53.9007083,10.5615379 L53.9693343,10.5615379 C54.519043,9.53742253 55.1716908,8.76916221 55.9286781,8.25745216 C56.6849652,7.74574212 57.6359262,7.4898871 58.7815611,7.4898871 C59.0791741,7.4898871 59.3767871,7.50101123 59.6751003,7.52325949 C59.9734136,7.54620301 60.2479178,7.5913948 60.5007138,7.66022536 L60.5007138,12.3365321 C60.1337745,12.2225097 59.7731376,12.136993 59.4174025,12.0806771 C59.0623677,12.0236659 58.6898263,11.9951603 58.3004785,11.9951603 C57.3145042,11.9951603 56.5358086,12.1307357 55.9629911,12.4046674 C55.3894734,12.6779039 54.948306,13.0589054 54.640189,13.5476719 C54.3299712,14.0378289 54.1296952,14.6225411 54.0379604,15.3059799 C53.9462255,15.9880282 53.9007083,16.7382118 53.9007083,17.5579213 L53.9007083,24.4861694 L48.7446509,24.4861694 L48.7446509,7.89939418" id="Fill-16"></path>
                    <path d="M71.7948766,17.1483039 C71.4117109,17.1483039 70.9343016,17.1648731 70.3598971,17.1993921 C69.7861805,17.2332207 69.233789,17.3291835 68.7047865,17.4872805 C68.1764719,17.6453776 67.7252032,17.8821779 67.353732,18.1990624 C66.9829487,18.5152564 66.7972131,18.9564093 66.7972131,19.5204498 C66.7972131,20.1300554 67.0551792,20.5829447 67.5738631,20.8763562 C68.0918591,21.1704581 68.6318681,21.3168187 69.1952661,21.3168187 C69.6898731,21.3168187 70.1686582,21.2491614 70.6302456,21.1138469 C71.091145,20.9778421 71.502515,20.7859164 71.8622917,20.5373796 C72.2227564,20.2895332 72.5096147,19.9733391 72.7235546,19.5887974 C72.9374945,19.2049461 73.0441205,18.7527472 73.0441205,18.2335814 L73.0441205,17.1483039 L71.7948766,17.1483039 Z M73.0441205,22.3006102 L72.9767053,22.3006102 C72.4139953,23.1808448 71.6648617,23.8132329 70.7313683,24.1977746 C69.7964991,24.5809355 68.8121004,24.7742419 67.7767964,24.7742419 C67.0104651,24.7742419 66.2737139,24.6658523 65.565167,24.4518345 C64.8552443,24.2371263 64.2299344,23.9154092 63.6899253,23.4859928 C63.1499163,23.0572668 62.7220365,22.5263645 62.4069739,21.893286 C62.0912234,21.2608979 61.93438,20.5263335 61.93438,19.6902833 C61.93438,18.7417011 62.1084211,17.9394795 62.4571913,17.2843088 C62.8066494,16.6291381 63.2799312,16.0871898 63.8763489,15.6577734 C64.4727665,15.228357 65.1531091,14.8942131 65.9187525,14.6574127 C66.684396,14.4206124 67.4775558,14.2459462 68.2996078,14.1320335 C69.1216598,14.0195016 69.9430239,13.9518443 70.764388,13.9290618 C71.5871279,13.9069696 72.3465801,13.8952332 73.0441205,13.8952332 C73.0441205,12.9915257 72.7235546,12.2742208 72.0817349,11.7426282 C71.4406031,11.2124163 70.680463,10.94662 69.8026903,10.94662 C68.9696317,10.94662 68.2101795,11.1212861 67.5236457,11.4719992 C66.836424,11.8220219 66.2228086,12.3025264 65.6827995,12.912132 L62.9813784,10.1326619 C63.9265663,9.25242735 65.0292854,8.59104327 66.2909116,8.15127118 C67.55185,7.71011833 68.8575025,7.4898871 70.2078691,7.4898871 C71.6937539,7.4898871 72.9147935,7.67559933 73.8716758,8.04909493 C74.828558,8.42190016 75.5942015,8.96937154 76.1679181,9.69219944 C76.7423226,10.4157177 77.1413102,11.3021657 77.3669446,12.3529241 C77.591891,13.4036826 77.7047082,14.6180611 77.7047082,15.9960596 L77.7047082,24.3669177 L73.0441205,24.3669177 L73.0441205,22.3006102 L73.0441205,22.3006102 Z" id="Fill-17"></path>
                    <path d="M80.8587739,7.89939418 L85.7114466,7.89939418 L85.7114466,10.1513355 L85.7787209,10.1513355 C85.9352365,9.83360253 86.1603995,9.51517427 86.4528367,9.19605075 C86.7445874,8.87831775 87.0933153,8.59326188 87.496961,8.34296892 C87.9012932,8.09267597 88.3619161,7.88757479 88.8788298,7.72905592 C89.3950569,7.56984179 89.9572778,7.4898871 90.5634328,7.4898871 C91.8443901,7.4898871 92.8775309,7.68873095 93.6642282,8.08641864 C94.4495525,8.4848016 95.0632588,9.03683662 95.5005416,9.74182845 C95.9385109,10.4475155 96.2364399,11.2776538 96.3936421,12.2336339 C96.5501578,13.1896139 96.6291021,14.2248534 96.6291021,15.3400476 L96.6291021,24.4861694 L91.5746065,24.4861694 L91.5746065,16.3634677 C91.5746065,15.8858253 91.5581312,15.3908014 91.524494,14.8783961 C91.4901704,14.3666861 91.389259,13.8946057 91.2210733,13.4621551 C91.0522011,13.0303998 90.7940875,12.6779039 90.4453596,12.4046674 C90.0980046,12.1307357 89.5975663,11.9951603 88.9467905,11.9951603 C88.2946418,11.9951603 87.7667446,12.1133542 87.361726,12.3532183 C86.9580803,12.5923871 86.6484813,12.9108154 86.4356748,13.3085031 C86.222182,13.706886 86.0821416,14.1560228 86.0141809,14.6566087 C85.947593,15.1578899 85.9132694,15.6807241 85.9132694,16.2265018 L85.9132694,24.4861694 L80.8587739,24.4861694 L80.8587739,7.89939418" id="Fill-18"></path>
                    <path d="M103.980652,11.2402679 L108.958293,11.2402679 C109.578217,11.2402679 110.186648,11.1664677 110.783586,11.0174749 C111.381201,10.8698746 111.911888,10.6303722 112.376999,10.3003602 C112.841435,9.97034817 113.217986,9.5317246 113.505977,8.98448947 C113.792616,8.43725434 113.936611,7.76539442 113.936611,6.96821348 C113.936611,6.19400806 113.787883,5.53259156 113.4884,4.98535643 C113.190269,4.4381213 112.802901,3.98905431 112.326973,3.63606677 C111.851045,3.282383 111.304133,3.02617113 110.684885,2.86673494 C110.064962,2.70729875 109.445714,2.62723254 108.826467,2.62723254 L103.980652,2.62723254 L103.980652,11.2402679 Z M101.7903,0.576145161 L108.560785,0.576145161 C109.378787,0.576145161 110.236675,0.673617067 111.13242,0.866472194 C112.028166,1.06071978 112.846843,1.39699785 113.588453,1.87461019 C114.329387,2.35431121 114.937818,3.00946166 115.413746,3.84006154 C115.888998,4.6727501 116.126962,5.71430704 116.126962,6.96821348 C116.126962,8.06129128 115.932941,9.00676876 115.546249,9.80464593 C115.158881,10.6025231 114.639011,11.2569773 113.985961,11.7700973 C113.334264,12.282521 112.581162,12.6640539 111.730711,12.9146959 C110.877555,13.165338 109.987218,13.2913552 109.058347,13.2913552 L103.980652,13.2913552 L103.980652,24.7742419 L101.7903,24.7742419 L101.7903,0.576145161 L101.7903,0.576145161 Z" id="Fill-19"></path>
                    <path d="M120.597351,13.4745863 C120.597351,13.1806205 120.586334,12.8235631 120.563611,12.4034139 C120.540888,11.9832647 120.524362,11.557569 120.512656,11.1270201 C120.501639,10.6964712 120.484424,10.2929616 120.461701,9.91857121 C120.439667,9.54348754 120.427961,9.2550683 120.427961,9.05054024 L122.456511,9.05054024 C122.479234,9.64055171 122.495071,10.2076838 122.507466,10.7519364 C122.518483,11.2968824 122.546026,11.6490866 122.592161,11.8078559 C123.11066,10.8767332 123.774449,10.1175528 124.586282,9.52684797 C125.397426,8.93752981 126.388289,8.64217742 127.560937,8.64217742 C127.763379,8.64217742 127.961001,8.65951031 128.152425,8.69278945 C128.343161,8.72745522 128.540783,8.76697421 128.743225,8.81203971 L128.507731,10.8198813 C128.236432,10.7297503 127.977527,10.6839915 127.729639,10.6839915 C126.850325,10.6839915 126.090135,10.8268145 125.447692,11.1096872 C124.806626,11.3939465 124.275733,11.7849765 123.859832,12.2834703 C123.441866,12.7833508 123.132694,13.3671224 122.929564,14.0368651 C122.727122,14.7059146 122.625901,15.4262694 122.625901,16.1979295 L122.625901,24.7742419 L120.597351,24.7742419 L120.597351,13.4745863" id="Fill-20"></path>
                    <path d="M132.516561,16.9962823 C132.516561,17.8891889 132.658768,18.7316726 132.943878,19.5223327 C133.228989,20.3129928 133.64585,21.0014064 134.193068,21.5854724 C134.740285,22.1702387 135.402523,22.6338499 136.177689,22.9777065 C136.952856,23.3215631 137.820038,23.4931412 138.77854,23.4931412 C139.736345,23.4931412 140.603527,23.3215631 141.379391,22.9777065 C142.154557,22.6338499 142.816098,22.1702387 143.364012,21.5854724 C143.911927,21.0014064 144.327394,20.3129928 144.613201,19.5223327 C144.899009,18.7316726 145.041216,17.8891889 145.041216,16.9962823 C145.041216,16.1026753 144.899009,15.2594912 144.613201,14.4695315 C144.327394,13.678171 143.911927,12.9904578 143.364012,12.4063918 C142.816098,11.8223258 142.154557,11.357314 141.379391,11.0134574 C140.603527,10.6696008 139.736345,10.4980227 138.77854,10.4980227 C137.820038,10.4980227 136.952856,10.6696008 136.177689,11.0134574 C135.402523,11.357314 134.740285,11.8223258 134.193068,12.4063918 C133.64585,12.9904578 133.228989,13.678171 132.943878,14.4695315 C132.658768,15.2594912 132.516561,16.1026753 132.516561,16.9962823 Z M130.463624,16.9962823 C130.463624,15.7812289 130.66857,14.6635198 131.079854,13.6445557 C131.489744,12.624191 132.059966,11.7417891 132.790518,10.9973501 C133.519677,10.2522107 134.398013,9.67304692 135.424829,9.26125938 C136.452343,8.84807119 137.569085,8.64217742 138.77854,8.64217742 C139.987298,8.64217742 141.099857,8.84807119 142.11552,9.26125938 C143.130486,9.67304692 144.008125,10.2522107 144.750529,10.9973501 C145.49084,11.7417891 146.067336,12.624191 146.47862,13.6445557 C146.88851,14.6635198 147.094152,15.7812289 147.094152,16.9962823 C147.094152,18.2106353 146.88851,19.3283444 146.47862,20.3480088 C146.067336,21.3676732 145.49084,22.2507754 144.750529,22.9952144 C144.008125,23.7410541 143.130486,24.3188173 142.11552,24.7320055 C141.099857,25.143793 139.987298,25.3503871 138.77854,25.3503871 C137.569085,25.3503871 136.452343,25.143793 135.424829,24.7320055 C134.398013,24.3188173 133.519677,23.7410541 132.790518,22.9952144 C132.059966,22.2507754 131.489744,21.3676732 131.079854,20.3480088 C130.66857,19.3283444 130.463624,18.2106353 130.463624,16.9962823 L130.463624,16.9962823 Z" id="Fill-21"></path>
                </g>
            </g>
        </g>
    </g>
</svg>